<?xml version="1.0" encoding="utf-8"?>
<!-- Generator: Adobe Illustrator 25.2.3, SVG Export Plug-In . SVG Version: 6.00 Build 0)  -->
<svg version="1.1" id="_x2014_ÎÓÈ_x5F_5" xmlns="http://www.w3.org/2000/svg" xmlns:xlink="http://www.w3.org/1999/xlink"
	 x="0px" y="0px" viewBox="0 0 2000 2000" style="enable-background:new 0 0 2000 2000;" xml:space="preserve">
<style type="text/css">
	.st0{fill:#FFFFFF;}
</style>
<rect x="0" y="0" class="st0" width="2000" height="2000"/>
<g>
	<g>
		<g>
			<g>
				<g>
					<g>
						<g>
							<g>
								<g>
									<g>
										<g>
											<g>
												<g>
													<path class="st0" d="M1633.31,525.65c-136.27,42.44-268.07,138.5-355.19,183.18
														c-87.12,44.68-163.08,122.86-163.08,122.86c-2.23-40.21-20.1-35.74-20.1-35.74c-6.7-15.64-24.57-37.98-24.57-37.98
														s11.17-26.81-6.7-37.98c-17.87-11.17-17.87-31.27-35.74-44.68c-17.87-13.4-27.92,6.7-27.92,6.7s-10.05-20.1-27.92-6.7
														c-17.87,13.4-17.87,33.51-35.74,44.68c-17.87,11.17-6.7,37.98-6.7,37.98s-17.87,22.34-24.57,37.98
														c0,0-17.87-4.47-20.1,35.74c0,0-75.95-78.19-163.08-122.86c-87.12-44.68-218.92-140.74-355.19-183.18
														c-136.27-42.44-209.99,8.94-209.99,29.04c0,20.1,15.64,26.81,15.64,26.81s2.23,37.98,22.34,71.49
														c20.11,33.51,49.15,127.33,98.29,174.24c49.15,46.91,58.08,80.42,82.65,80.42c24.57,0,87.12-22.34,136.27-6.7
														c0,0-96.06,17.87-111.69,82.65c-15.64,64.78,122.87,136.27,160.84,140.74c37.98,4.47,51.38-2.23,93.82,26.81
														c42.44,29.04,35.74,2.23,82.65,17.87c46.91,15.64,82.65-15.64,109.46-51.38c26.81-35.74,40.21-58.08,40.21-58.08
														s-17.87,49.15-6.7,60.32c0,0,8.94,42.44,4.47,60.32c-4.47,17.87,2.23,46.91,6.7,60.32c4.47,13.4-11.17,33.51-6.7,44.68
														c4.47,11.17,13.4,37.98,13.4,46.91c0,8.93,17.87,33.51,17.87,46.91c0,13.4,17.87,44.68,17.87,44.68
														s45.79,67.02,65.9,67.02c20.11,0,65.9-67.02,65.9-67.02s17.87-31.27,17.87-44.68c0-13.4,17.87-37.98,17.87-46.91
														c0-8.94,8.94-35.74,13.4-46.91c4.47-11.17-11.17-31.28-6.7-44.68c4.47-13.4,11.17-42.44,6.7-60.32
														c-4.47-17.87,4.47-60.32,4.47-60.32c11.17-11.17-6.7-60.32-6.7-60.32s13.4,22.34,40.21,58.08
														c26.81,35.74,62.55,67.02,109.46,51.38c46.91-15.64,40.21,11.17,82.66-17.87c42.44-29.04,55.85-22.34,93.82-26.81
														c37.98-4.47,176.48-75.95,160.84-140.74c-15.64-64.78-111.7-82.65-111.7-82.65c49.15-15.64,111.7,6.7,136.27,6.7
														c24.57,0,33.51-33.51,82.65-80.42c49.15-46.91,78.19-140.74,98.29-174.24c20.1-33.51,22.34-71.49,22.34-71.49
														s15.64-6.7,15.64-26.81C1843.3,534.58,1769.58,483.2,1633.31,525.65z"/>
												</g>
											</g>
										</g>
									</g>
								</g>
							</g>
						</g>
					</g>
				</g>
			</g>
		</g>
		<g>
			<g>
				<g>
					<g>
						<g>
							<g>
								<g>
									<g>
										<g>
											<g>
												<g>
													<path d="M1000,1497.39c-21.94,0-60.22-53.53-71.43-69.94l-0.29-0.46c-1.92-3.36-18.75-33.24-18.75-48
														c0-5.79-5.31-16.33-9.57-24.81c-5.15-10.23-8.3-16.77-8.3-22.11c0-6.91-7.84-31.71-12.92-44.42
														c-3.11-7.78,0.02-16.86,3.05-25.64c2.5-7.23,5.08-14.71,3.51-19.41c-4.85-14.55-11.75-44.43-6.84-64.06
														c3.21-12.84-1.67-43.15-4.2-55.72c-4.3-6.03-4.72-16.06-3.4-26.63c-5.23,7.43-11.4,15.96-18.51,25.45
														c-37.43,49.9-75.67,67.48-116.94,53.71c-19.3-6.43-28.54-5.17-36.69-4.05c-13.6,1.86-23.59,1.8-47.63-14.64
														c-31.51-21.56-45.34-22.41-68.25-23.81c-6.55-0.4-13.98-0.86-22.57-1.87c-32.18-3.79-119.01-46.96-153.22-96.08
														c-12.87-18.48-17.36-36.27-13.35-52.88c10.94-45.31,57.13-68.77,88.13-79.64c-25.72-1.56-52.66,3.46-73.9,7.43
														c-13.03,2.43-24.29,4.53-32.3,4.53c-17.65,0-27.96-13.13-43.57-33c-10.56-13.44-23.69-30.16-43.71-49.27
														c-35.27-33.66-60.44-90.77-78.82-132.46c-7.9-17.93-14.73-33.42-20.59-43.18c-17.27-28.78-21.86-60.25-22.97-70.86
														c-5.72-3.77-15.97-13.02-15.97-30.88c0-7.97,6.31-17,17.76-25.42c33.51-24.66,103.89-40.24,200.93-10.02
														c95.56,29.77,189.96,86.3,265.82,131.72c32.97,19.75,64.12,38.4,90.44,51.89c68.88,35.32,131.43,91.94,154.95,114.47
														c2.23-11.73,6.45-19.94,12.61-24.48c2.94-2.17,5.84-3.14,8.25-3.52c6.12-12.27,16.69-26.54,21.35-32.6
														c-2.77-8.94-7.36-31.14,10.68-42.42c7.71-4.82,11.52-11.73,15.93-19.73c4.46-8.09,9.51-17.25,19.35-24.63
														c8.61-6.46,16.01-6.5,20.69-5.39c4.74,1.12,8.48,3.72,11.25,6.42c2.77-2.7,6.51-5.31,11.25-6.42
														c4.68-1.11,12.08-1.07,20.69,5.39c9.84,7.38,14.89,16.54,19.35,24.63c4.41,8,8.22,14.91,15.93,19.73
														c18.04,11.28,13.45,33.48,10.68,42.42c4.66,6.06,15.22,20.33,21.35,32.6c2.41,0.38,5.31,1.35,8.25,3.52
														c6.16,4.54,10.38,12.75,12.61,24.48c23.53-22.52,86.07-79.14,154.95-114.47c26.32-13.5,57.46-32.15,90.44-51.89
														c75.85-45.42,170.26-101.96,265.82-131.72c97.04-30.23,167.42-14.65,200.93,10.02c11.45,8.43,17.76,17.45,17.76,25.42
														c0,17.85-10.24,27.1-15.97,30.88c-1.11,10.61-5.7,42.09-22.96,70.86c-5.86,9.76-12.68,25.25-20.59,43.18
														c-18.38,41.7-43.55,98.8-78.82,132.46c-20.02,19.11-33.15,35.83-43.71,49.27c-15.61,19.87-25.93,33-43.57,33
														c-8.01,0-19.26-2.1-32.3-4.53c-21.23-3.96-48.17-8.99-73.9-7.43c31,10.87,77.2,34.33,88.13,79.64
														c4.01,16.61-0.48,34.4-13.35,52.88c-34.22,49.12-121.04,92.3-153.22,96.08c-8.6,1.01-16.02,1.47-22.57,1.87
														c-22.91,1.4-36.73,2.25-68.25,23.81c-24.04,16.45-34.03,16.5-47.63,14.64c-8.14-1.11-17.38-2.38-36.69,4.05
														c-41.26,13.76-79.52-3.82-116.94-53.71c-7.12-9.49-13.28-18.02-18.51-25.45c1.31,10.57,0.9,20.6-3.4,26.63
														c-2.52,12.57-7.41,42.88-4.2,55.72c4.91,19.63-1.99,49.5-6.85,64.06c-1.56,4.69,1.02,12.17,3.51,19.41
														c3.03,8.78,6.16,17.86,3.05,25.64c-5.08,12.71-12.92,37.51-12.92,44.42c0,5.34-3.15,11.88-8.3,22.11
														c-4.26,8.47-9.57,19.02-9.57,24.81c0,14.76-16.83,44.64-18.75,48l-0.29,0.46
														C1060.22,1443.86,1021.94,1497.39,1000,1497.39z M939.78,1420.12c21.06,30.76,50.01,63.88,60.22,63.88
														c10.21,0,39.16-33.11,60.21-63.87c6.58-11.55,16.86-32.72,16.86-41.12c0-8.97,5.59-20.08,11-30.83
														c2.74-5.44,6.87-13.65,6.87-16.08c0-11.08,10.33-40.51,13.88-49.4c1.26-3.14-1.15-10.13-3.28-16.29
														c-3.08-8.91-6.56-19.01-3.56-28.02c4.75-14.27,10.42-41.1,6.56-56.57c-4.71-18.83,3.46-58.82,4.41-63.32l0.41-1.95
														l1.41-1.41c4.34-4.34,0.48-29.24-8.26-53.29l12.04-5.74c0.13,0.22,13.58,22.52,39.83,57.51
														c33.99,45.32,66.39,60.91,101.98,49.04c22.27-7.42,33.62-5.87,42.75-4.62c10.07,1.38,16.73,2.29,38.24-12.42
														c34.57-23.66,51.53-24.69,75-26.13c6.69-0.41,13.6-0.83,21.83-1.8c25.38-2.99,110.24-42.27,143.79-90.43
														c10.58-15.19,14.39-29.35,11.32-42.08c-14.42-59.76-105.49-77.47-106.41-77.64l-26.17-4.9l25.37-8.08
														c35.97-11.45,77.87-3.62,108.46,2.08c12.38,2.31,23.07,4.31,29.84,4.31c10.68,0,17.85-8.55,33.03-27.88
														c10.82-13.77,24.28-30.92,44.99-50.68c33.33-31.82,57.88-87.51,75.81-128.18c8.09-18.34,15.07-34.19,21.36-44.67
														c19.04-31.73,21.37-68.07,21.4-68.43l0.24-4.14l3.81-1.63c0.41-0.19,11.58-5.44,11.58-20.65
														c0-2.24-3.28-7.99-12.29-14.63c-10.67-7.85-69.9-45.11-189-8.01c-94.03,29.29-187.68,85.37-262.92,130.42
														c-33.17,19.86-64.5,38.62-91.21,52.32c-85.09,43.64-160.58,120.8-161.33,121.57l-10.65,10.96l-0.85-15.26
														c-1.07-19.31-5.76-25.92-8.45-28.15c-1.65-1.36-3.01-1.43-3.48-1.42l-5.8,2.09l-1.84-6
														c-6.27-14.63-23.47-36.21-23.65-36.43l-2.48-3.1l1.53-3.66c0.08-0.2,8.73-21.72-4.07-29.72
														c-10.66-6.66-15.69-15.79-20.56-24.62c-4.17-7.57-8.12-14.72-15.65-20.38c-3.59-2.69-6.81-3.72-9.57-3.07
														c-4.36,1.03-7.69,6.1-8.34,7.41L1000,697l-5.99-11.99c-0.88-1.71-4.15-6.45-8.39-7.42c-2.76-0.64-5.96,0.41-9.52,3.08
														c-7.53,5.65-11.48,12.8-15.65,20.38c-4.87,8.83-9.9,17.96-20.56,24.62c-12.8,8-4.15,29.52-4.06,29.73l1.5,3.65
														l-2.46,3.1c-0.17,0.21-17.39,21.82-23.65,36.43l-2.49,5.81l-5.16-1.89c-0.49-0.01-1.83,0.07-3.47,1.42
														c-2.7,2.22-7.38,8.84-8.46,28.15l-0.85,15.26l-10.65-10.96c-0.75-0.77-76.23-77.93-161.33-121.57
														c-26.71-13.7-58.04-32.46-91.21-52.32c-75.24-45.06-168.88-101.14-262.92-130.42c-119.11-37.1-178.33,0.17-189,8.01
														c-9.02,6.64-12.3,12.39-12.3,14.63c0,15.51,11.46,20.6,11.57,20.65l3.81,1.63l0.24,4.14
														c0.02,0.36,2.43,36.81,21.4,68.43c6.29,10.48,13.27,26.33,21.36,44.67c17.93,40.66,42.48,96.36,75.81,128.18
														c20.71,19.77,34.17,36.91,44.99,50.68c15.19,19.33,22.35,27.88,33.03,27.88c6.77,0,17.46-1.99,29.84-4.31
														c30.59-5.71,72.49-13.53,108.46-2.08l25.38,8.07l-26.18,4.9c-0.92,0.17-91.98,17.88-106.41,77.64
														c-3.07,12.73,0.74,26.88,11.32,42.08c33.55,48.16,118.41,87.45,143.79,90.43c8.23,0.97,15.14,1.39,21.83,1.8
														c23.47,1.44,40.43,2.48,75,26.13c21.51,14.71,28.16,13.8,38.24,12.42c9.13-1.25,20.48-2.8,42.75,4.62
														c35.58,11.85,67.99-3.72,101.98-49.04c26.24-34.99,39.69-57.29,39.83-57.51l12.05,5.74
														c-8.74,24.05-12.6,48.95-8.26,53.29l1.41,1.41l0.41,1.95c0.95,4.5,9.12,44.5,4.41,63.32
														c-3.87,15.47,1.8,42.31,6.56,56.57c3,9-0.48,19.1-3.56,28.02c-2.13,6.16-4.54,13.14-3.28,16.29
														c3.56,8.89,13.88,38.32,13.88,49.4c0,2.43,4.14,10.64,6.87,16.08c5.41,10.75,11,21.86,11,30.83
														C922.93,1387.41,933.21,1408.57,939.78,1420.12z M1096.57,802.45L1096.57,802.45L1096.57,802.45z M903.43,802.45
														L903.43,802.45L903.43,802.45z"/>
												</g>
											</g>
										</g>
									</g>
								</g>
							</g>
						</g>
					</g>
				</g>
			</g>
		</g>
	</g>
	<g>
		<g>
			<g>
				<g>
					<g>
						<g>
							<g>
								<g>
									<g>
										<g>
											<g>
												<g>
													<path d="M743.79,641.43c2.57-13.66,21.61-15.08,29.8-7.09c6.89,6.71,9.26,16.2,13.62,24.43
														c7.62,14.37,20.72,25.77,35.78,31.81c18.25,7.32,38.19,5.7,57.23,9c10.64,1.84,20.83,5.55,29.17,12.56
														c6.65,5.59,10.23,13.75,16.91,19.08c4.08,3.26,7.17-2.83,6.87-6.31c-1.84-21.61-22.82-37.64-42.55-42.96
														c-24.65-6.65-52.39-1.28-74.88-15.36c-9.75-6.11-16.45-14.52-22.75-23.97c-5.13-7.69-9.48-16.5-17.68-21.37
														c-16.06-9.52-31.58,2.25-34.32,19.09C740.63,642.64,743.26,644.28,743.79,641.43L743.79,641.43z"/>
												</g>
											</g>
										</g>
									</g>
								</g>
							</g>
						</g>
					</g>
				</g>
			</g>
		</g>
	</g>
	<g>
		<g>
			<g>
				<g>
					<g>
						<g>
							<g>
								<g>
									<g>
										<g>
											<g>
												<g>
													<path d="M929.94,766.67l-5.09-4.36c1.74-2.03,17.44-19.73,31.35-15.94c4.25,1.16,8.41,2.9,12.8,4.74
														c8.71,3.65,17.73,7.43,29.05,7.43v6.7c-12.67,0-22.75-4.22-31.64-7.95c-4.19-1.75-8.15-3.41-11.98-4.46
														C946.05,750.53,933.92,762.04,929.94,766.67z"/>
												</g>
											</g>
										</g>
									</g>
								</g>
							</g>
						</g>
					</g>
				</g>
			</g>
		</g>
	</g>
	<g>
		<g>
			<g>
				<g>
					<g>
						<g>
							<g>
								<g>
									<g>
										<g>
											<g>
												<g>
													<path d="M1002.19,969.7c-8.2,0-25.42-1.09-28.78-10.06c-3.07-8.18-10.48-37.42-12.1-43.84
														c-3.99-2.93-17.71-13.99-24.75-32.08c-8.23-21.17,11.51-65.5,12.35-67.37l6.11,2.75c-0.2,0.43-19.44,43.63-12.22,62.19
														c7.32,18.82,23.15,29.6,23.31,29.7l1.07,0.72l0.32,1.26c0.09,0.35,8.93,35.66,12.17,44.31
														c1.63,4.35,16.01,6.08,25.76,5.65l0.29,6.7C1004.98,969.66,1003.75,969.7,1002.19,969.7z"/>
												</g>
											</g>
										</g>
									</g>
								</g>
							</g>
						</g>
					</g>
				</g>
			</g>
		</g>
	</g>
	<g>
		<g>
			<g>
				<g>
					<g>
						<g>
							<g>
								<g>
									<g>
										<g>
											<g>
												<g>
													<path d="M883.24,826.6c0.68,29.35-2.26,58.1-9.38,86.59c-5.43,21.73-8.66,44.84,5.12,64.22
														c1.31,1.84,3.48,2.44,5.26,0.9c23.72-20.55,43.48-42.61,51.54-73.7c7.37-28.44,0.93-60.2,18.94-85.43
														c1.28-1.79-0.59-6.19-2.52-3.64c-15.32,20.26-15.81,47.14-19.82,71.24c-5.75,34.57-26.9,58.37-52.78,80.28
														c1.75,0.3,3.51,0.6,5.26,0.9c-15.35-22.04-1.6-50.1,2.42-73.65c3.92-22.99,3.5-45.55-1.8-68.22
														C885.03,824.16,883.2,824.84,883.24,826.6L883.24,826.6z"/>
												</g>
											</g>
										</g>
									</g>
								</g>
							</g>
						</g>
					</g>
				</g>
			</g>
		</g>
	</g>
	<g>
		<g>
			<g>
				<g>
					<g>
						<g>
							<g>
								<g>
									<g>
										<g>
											<g>
												<g>
													<path d="M499.41,901.66c35.2,5.86,67.85,19.54,103.9,21.76c35.88,2.22,71.86,3.93,107.79,5.35
														c17.67,0.7,35.38,0.31,52.89-2.49c8.9-1.42,17.79-4.15,26.89-3.33c7.99,0.72,15.69,3.85,22.92,7.17
														c12.26,5.64,25.09,12.11,39,9.62c12.13-2.17,20.64-10.1,26.59-20.52c1.8-3.16-1.57-10.73-4.24-6.13
														c-8.37,14.38-25.61,19.31-41.02,14.59c-12.97-3.97-24.23-12.78-37.55-15.64c-15.01-3.22-30.48,2.46-45.49,3.62
														c-17.55,1.37-35.48,0.27-53.04-0.52c-33.73-1.52-67.58-2.39-101.25-4.82c-17.49-1.26-34.23-4.83-51.17-9.23
														c-14.67-3.81-31.25-7.41-46.33-4.33C497.12,897.22,497.24,901.3,499.41,901.66L499.41,901.66z"/>
												</g>
											</g>
										</g>
									</g>
								</g>
							</g>
						</g>
					</g>
				</g>
			</g>
		</g>
	</g>
	<g>
		<g>
			<g>
				<g>
					<g>
						<g>
							<g>
								<g>
									<g>
										<g>
											<g>
												<g>
													<path d="M905.24,954.45c-1.5-1.88,7.7,8.91,6.46,6.89c2.23,3.61,1.17,2.56-0.35,5.65c-1.54,3.14-4,5.3-4.95,8.93
														c-2,7.62,0.2,14.41,5.69,19.8c-0.08-3.12-0.15-6.25-0.23-9.37c-10.48,12.07-19.95,24.73-26.42,39.45
														c-3.03,6.9-4.87,13.17-5.39,20.71c-0.49,7.18-2.37,13.96-2.72,21.07c-0.11,2.33,1.33,5.57,3.95,5.71
														c0.66,0.04,1.33,0.07,1.99,0.11c1.58,0.09,3.15-1.39,3.9-2.6c6.13-9.92,3.06-20.58,4.05-31.55
														c1.54-17.04,13.69-31.17,24.45-43.62c2.24-2.59,2.28-6.92-0.23-9.37c-8.48-8.28,6.36-14.37,5.73-22.55
														c-0.5-6.61-9.4-10.81-14.51-13.3C904.71,949.44,904.48,953.5,905.24,954.45L905.24,954.45z"/>
												</g>
											</g>
										</g>
									</g>
								</g>
							</g>
						</g>
					</g>
				</g>
			</g>
		</g>
	</g>
	<g>
		<g>
			<g>
				<g>
					<g>
						<g>
							<g>
								<g>
									<g>
										<g>
											<g>
												<g>
													<path d="M973.19,843.42c-13.45,0-17.87,22.34-8.94,26.81c8.94,4.47,24.57-7.82,24.57-13.4
														C988.83,851.24,982.13,843.42,973.19,843.42z"/>
												</g>
											</g>
										</g>
									</g>
								</g>
							</g>
						</g>
					</g>
				</g>
			</g>
		</g>
	</g>
	<g>
		<g>
			<g>
				<g>
					<g>
						<g>
							<g>
								<g>
									<g>
										<g>
											<g>
												<g>
													<path d="M948.62,872.46c0,0,24.57,22.34,42.44,4.47l3.35,33.51c0,0-11.17-12.29-18.99-1.12
														C975.43,909.32,948.62,898.15,948.62,872.46z"/>
												</g>
											</g>
										</g>
									</g>
								</g>
							</g>
						</g>
					</g>
				</g>
			</g>
		</g>
	</g>
	<g>
		<g>
			<g>
				<g>
					<g>
						<g>
							<g>
								<g>
									<g>
										<g>
											<g>
												<g>
													<path d="M966.49,832.99c11.38-4.16,19.73,1.86,28.28,13.28c-2.59-11.05-4.67-20.08-3.24-31.31
														c-3.32,5.48-9.23,6.75-15.39,8.49c-6.16,1.74-12.64,1.91-19.04,2.07c-4.45,8.93-8.92,19.69-9.21,29.58
														C954.26,846.55,954.96,837.21,966.49,832.99z"/>
												</g>
											</g>
										</g>
									</g>
								</g>
							</g>
						</g>
					</g>
				</g>
			</g>
		</g>
	</g>
	<g>
		<g>
			<g>
				<g>
					<g>
						<g>
							<g>
								<g>
									<g>
										<g>
											<g>
												<g>
													<path d="M1030.91,832.99c-11.38-4.16-19.73,1.86-28.28,13.28c2.59-11.05,4.67-20.08,3.24-31.31
														c3.31,5.48,9.22,6.75,15.39,8.49c6.16,1.74,12.64,1.91,19.04,2.07c4.45,8.93,8.92,19.69,9.21,29.58
														C1043.14,846.55,1042.44,837.21,1030.91,832.99z"/>
												</g>
											</g>
										</g>
									</g>
								</g>
							</g>
						</g>
					</g>
				</g>
			</g>
		</g>
	</g>
	<g>
		<g>
			<g>
				<g>
					<g>
						<g>
							<g>
								<g>
									<g>
										<g>
											<g>
												<g>
													<path d="M922.83,796.48c1.73-2.63,4.35-4.66,7.33-5.67c-0.4,5.4,1.88,10.95,5.97,14.5c0.64-3.88,3.39-7.34,7.03-8.84
														c1.27,4.34,4.24,8.15,8.14,10.45c0.7-3.61,2.37-7.03,4.78-9.81c1.46,3.3,3.71,6.25,6.51,8.53
														c0.71-2.5,1.41-4.99,2.12-7.49c9.45,0.64,16.74,3.25,25.75-9.75c-4.01,2.07-8.1,4.17-12.55,4.91
														c-4.45,0.74-9.4-0.09-12.64-3.23c-3.24-3.14-3.2-11.67-0.1-14.94c-11.62,0.6-11.35,12.18-18.19,11.8
														c-3.04-0.17-6.2-1.17-8.16-3.51c-1.84-2.2-2.34-5.26-2.1-8.12c0.3-3.54,2-7.36,3.71-10.3
														C930.23,770.07,924.31,785.62,922.83,796.48z"/>
												</g>
											</g>
										</g>
									</g>
								</g>
							</g>
						</g>
					</g>
				</g>
			</g>
		</g>
	</g>
	<g>
		<g>
			<g>
				<g>
					<g>
						<g>
							<g>
								<g>
									<g>
										<g>
											<g>
												<g>
													<path d="M1076.1,796.48c-1.73-2.63-4.35-4.66-7.33-5.67c0.4,5.4-1.88,10.95-5.97,14.5c-0.64-3.88-3.39-7.34-7.02-8.84
														c-1.27,4.34-4.25,8.15-8.14,10.45c-0.7-3.61-2.37-7.03-4.78-9.81c-1.46,3.3-3.71,6.25-6.51,8.53
														c-0.71-2.5-1.41-4.99-2.12-7.49c-9.45,0.64-16.74,3.25-25.75-9.75c4.01,2.07,8.1,4.17,12.55,4.91
														c4.45,0.74,9.4-0.09,12.64-3.23c3.24-3.14,3.2-11.67,0.09-14.94c11.62,0.6,11.35,12.18,18.19,11.8
														c3.04-0.17,6.2-1.17,8.16-3.51c1.84-2.2,2.34-5.26,2.1-8.12c-0.3-3.54-2-7.36-3.71-10.3
														C1068.7,770.07,1074.62,785.62,1076.1,796.48z"/>
												</g>
											</g>
										</g>
									</g>
								</g>
							</g>
						</g>
					</g>
				</g>
			</g>
		</g>
	</g>
	<g>
		<g>
			<g>
				<g>
					<g>
						<g>
							<g>
								<g>
									<g>
										<g>
											<g>
												<g>
													<path d="M898.37,819.65c2.83,0.45,5.54,1.62,7.81,3.37c-4.2,2.33-7.72,5.88-10.01,10.1c2.88,0.12,5.75,0.23,8.62,0.35
														c-5.13,3.83-8.89,9.45-10.5,15.64c3.57-2.5,8.59-2.75,12.39-0.62c-6.06,4.09-10.73,10.21-13.1,17.13
														c2.92-1.34,6.13-2.06,9.34-2.1c-5.52,6.15-9.49,13.68-11.46,21.71c2.2-0.96,4.4-1.91,6.59-2.87
														c-9.04,15.89-7.55,37.16,3.63,51.63c-0.96-18.1,3.82-36.46,13.48-51.8c-5.21-1.96-6.37-9.15-4.4-14.36
														c1.97-5.21,6.01-9.36,8.51-14.34c0.58-1.16,1.09-2.49,0.75-3.75c-0.36-1.32-1.54-2.2-2.5-3.17
														c-4.89-4.95-4.38-13.51-0.44-19.25c3.86-5.61,10.24-8.96,16.38-11.45c-9.99-2.09-19.21-8.86-29.27-9.72
														c2.67,1.66,4.84,5.16,7.11,7.04C906.62,814.27,901.95,816.36,898.37,819.65z"/>
												</g>
											</g>
										</g>
									</g>
								</g>
							</g>
						</g>
					</g>
				</g>
			</g>
		</g>
	</g>
	<g>
		<g>
			<g>
				<g>
					<g>
						<g>
							<g>
								<g>
									<g>
										<g>
											<g>
												<g>
													<path d="M871.86,959.62c1.23-11.69,5.78-23.01,12.97-32.31c0.23,10.53,1.76,21.02,4.56,31.17
														c0.4,1.44,0.82,2.98,0.39,4.41c-0.24,0.82-0.75,1.54-1.24,2.24c-2.05,2.89-4.09,5.77-6.14,8.65
														c-4.33-5.71-7.08-12.61-7.88-19.74L871.86,959.62z"/>
												</g>
											</g>
										</g>
									</g>
								</g>
							</g>
						</g>
					</g>
				</g>
			</g>
		</g>
	</g>
	<g>
		<g>
			<g>
				<g>
					<g>
						<g>
							<g>
								<g>
									<g>
										<g>
											<g>
												<g>
													<path d="M939.37,911.05c-1.53,0.24-3.12,0.13-4.58,0.63c-3.22,1.11-4.69,4.72-5.97,7.87
														c-3.48,8.63-8.18,16.76-13.93,24.07c7.18-6.54,14.37-13.07,21.55-19.61c-1.85,9.05-4.53,17.93-7.99,26.49
														c5.99-6.2,11.47-12.89,16.37-19.98c1.13,8.47,1.67,17.02,1.62,25.56c2.69-6.99,5.37-13.98,8.06-20.97
														c1.99,7.01,4.09,14.23,8.65,19.92c4.56,5.69,12.28,9.5,19.23,7.32c-5.38-7.05-9.39-15.14-11.73-23.69
														c-2.16-7.89-2.92-16.18-5.94-23.78c-2.74-6.9-8.74-15.23-16.58-15.01C947.69,904.83,944.71,910.21,939.37,911.05z"/>
												</g>
											</g>
										</g>
									</g>
								</g>
							</g>
						</g>
					</g>
				</g>
			</g>
		</g>
	</g>
	<g>
		<g>
			<g>
				<g>
					<g>
						<g>
							<g>
								<g>
									<g>
										<g>
											<g>
												<g>
													<path d="M938.98,743.71c4.8-5.28,7.39-12.43,14.07-14.65c-3.37,2.62-4.05,8.08-1.43,11.45
														c2.26-5.2,6.52-9.5,11.71-11.8c-1.82,4.68-0.98,10.3,2.13,14.25c1.31-6.24,5.66-11.76,11.42-14.48
														c-2.9,6.4-1.05,14.62,4.31,19.16c0.09-6.53,3.08-12.97,8.01-17.25c-0.39,3.2-0.78,6.48-0.07,9.62
														c0.72,3.14,2.78,6.18,5.86,7.15c-2.57-7.35-0.57-15.4,0.95-23.04c1.52-7.64,2.36-16.2-2.01-22.64
														c0.3,8.65-8.37,14.55-15.97,18.69c4.26-7.08,5.77-15.77,4.13-23.87c-2.33,9.69-8.71,18.63-17.36,23.63
														c2.87-6.82,1.47-10.14,2.49-12.03C955.69,721.67,934.47,729.49,938.98,743.71z"/>
												</g>
											</g>
										</g>
									</g>
								</g>
							</g>
						</g>
					</g>
				</g>
			</g>
		</g>
	</g>
	<g>
		<g>
			<g>
				<g>
					<g>
						<g>
							<g>
								<g>
									<g>
										<g>
											<g>
												<g>
													<path d="M1061.34,743.71c-4.8-5.28-7.39-12.43-14.07-14.65c3.37,2.62,4.05,8.08,1.43,11.45
														c-2.26-5.2-6.52-9.5-11.71-11.8c1.82,4.68,0.98,10.3-2.13,14.25c-1.31-6.24-5.66-11.76-11.42-14.48
														c2.9,6.4,1.05,14.62-4.31,19.16c-0.09-6.53-3.08-12.97-8.01-17.25c0.39,3.2,0.78,6.48,0.06,9.62
														c-0.72,3.14-2.78,6.18-5.85,7.15c2.57-7.35,0.57-15.4-0.95-23.04c-1.52-7.64-2.36-16.2,2.01-22.64
														c-0.3,8.65,8.37,14.55,15.97,18.69c-4.26-7.08-5.76-15.77-4.13-23.87c2.33,9.69,8.71,18.63,17.36,23.63
														c-2.87-6.82-1.47-10.14-2.5-12.03C1044.62,721.67,1065.85,729.49,1061.34,743.71z"/>
												</g>
											</g>
										</g>
									</g>
								</g>
							</g>
						</g>
					</g>
				</g>
			</g>
		</g>
	</g>
	<g>
		<g>
			<g>
				<g>
					<g>
						<g>
							<g>
								<g>
									<g>
										<g>
											<g>
												<g>
													<path d="M897.8,1078.54c0.56,6.59-1.68,12.84-1.81,18.33c-0.03,1.37-0.36,2.81,0.22,4.05c1.26,2.69,3.22,4.65,5.5,2.75
														c2.28-1.89,4.47-7.26,6.7-15.64c2.79,7.26,0.26,13.92,0.67,17.9c5.99-5.31,11.01-11.71,14.74-18.78
														c-2.13,6.06-1.21,13.12,2.4,18.43c1.97-3.68,4.53-7.05,7.54-9.95c-0.15,4.81,1.22,9.66,3.88,13.67
														c0.68,1.03,1.54,2.07,2.74,2.36c1.6,0.38,3.16-0.7,4.39-1.79c5.19-4.64,4.4-10.66,10.97-17.45
														c-1.53,5.66,0.17,12.08,4.3,16.24c4.24-4.05,7.42-9.21,9.12-14.83c2.39,4.05-1.43,10.46,2.2,13.45
														c2.62,2.16,6.7,0.08,8.64-2.71c1.94-2.79,2.94-6.29,5.53-8.5c-1.32,5.7,0.82,12.06,5.31,15.82
														c4.47-4.89,7.93-10.69,10.11-16.95c-1.16,12.68-0.72,25.51,1.32,38.08c-2.14-3.48-4.28-6.97-6.42-10.45
														c-2.83,6.6-4.53,13.68-5,20.85c-2.99-5.79-4.91-12.13-5.63-18.61c-4.03,4.68-6.65,10.56-7.44,16.69
														c-2.56-3.72-5.11-7.44-7.67-11.16c-0.88,3.58-2.54,6.97-4.85,9.85c-2.47-3.21-4.93-6.43-7.4-9.64
														c-4.4,4.38-4.78,9.42-7.1,16.72c-4.38-6.74-5.42-12.32-11.55-14.08c-6.13-1.77-12.37,2.32-14.23,8.74
														c-3.17-6.42-2.61-10.39-5.46-14.89c-3.73,5.23-6.51,11.13-8.19,17.34c-1.12-3.62-2.23-7.24-3.35-10.85
														c-0.47-1.53-1.02-3.17-2.31-4.11c-2.46-1.79-6.2,0.2-7.28,3.05c-1.09,2.84-0.36,6.02,0.38,8.97
														c-4.08-5.52-6.9-11.98-8.16-18.74c-1.33,5.45-2.67,10.91-4,16.36c-6.54-10.26-11.95-21.57-13.2-33.68
														c-0.77-7.38-0.26-17.44,4.41-23.17C879.93,1086.36,886.63,1095.29,897.8,1078.54z"/>
												</g>
											</g>
										</g>
									</g>
								</g>
							</g>
						</g>
					</g>
				</g>
			</g>
		</g>
	</g>
	<g>
		<g>
			<g>
				<g>
					<g>
						<g>
							<g>
								<g>
									<g>
										<g>
											<g>
												<g>
													<path d="M916.3,1153.12c-0.47,6.76,1.8,13.67,6.2,18.83c1.14-6.72,4.89-12.96,10.28-17.14
														c-0.8,7.35,2.2,15.02,7.78,19.87c0.4-6.88,3.63-13.55,8.79-18.12c0.41,8.7,4.4,17.17,10.84,23.03
														c1.96-5.38,5.72-10.08,10.54-13.17c0.39,3.83,2.39,7.48,5.42,9.87c2.66-3.33,5.32-6.66,7.99-9.99
														c0.28,4.93,2.97,9.66,7.07,12.42c3.62-5.19,4.56-10.81,6.85-16.71c-3.09,16.76-0.95,33.89,0,50.9
														c-1.5-4.76-5.51-9.1-9.27-12.38c-4.21,4.2-6.76,10.03-6.97,15.97c-2.29-2.57-3.87-5.76-4.52-9.14
														c-2.71,4.66-5.43,9.31-8.14,13.97c-0.96-5.87-1.92-11.74-2.88-17.61c-3.05,7.09-5.6,14.4-7.62,21.85
														c-1.21-6.85-2.43-13.71-3.64-20.56c-4.8,6.48-8.04,14.11-9.35,22.06c-2.53-8.39-5.8-16.56-9.75-24.38
														c-3.55,5.79-6.3,12.06-8.15,18.59c-1.64-6.52-3.29-13.05-4.93-19.57c-3.86,4.53-7,9.67-9.28,15.17
														c-2.64-6.1-4.35-12.59-5.08-19.2c-2.54,4.91-4.16,10.3-4.75,15.8c-3.39-6.28-5.66-13.17-6.66-20.24
														c-1.44,5.51-2.87,11.02-4.31,16.52c-1.72-6.68-3.44-13.36-5.15-20.04c-0.82,3.09-1.63,6.17-2.44,9.26
														c2.06-7.81-5.57-31.48,1.81-36.7c5.26-3.72,15.74,6.57,16.11-6.38c1.34,4.34,2.86,8.58,5.45,12.25
														C912.38,1164.09,914.84,1158.6,916.3,1153.12z"/>
												</g>
											</g>
										</g>
									</g>
								</g>
							</g>
						</g>
					</g>
				</g>
			</g>
		</g>
	</g>
	<g>
		<g>
			<g>
				<g>
					<g>
						<g>
							<g>
								<g>
									<g>
										<g>
											<g>
												<g>
													<path d="M906.46,1247.79c0.78-5.31,0.51-15.97,3.06-20.7c0.26,4.45,4.46,14.24,7.94,17.03
														c0.23-5.31,2.4-10.52,6.02-14.42c1.19,8.6,4.95,16.82,10.68,23.34c-1.15-7.56,0.23-15.49,3.87-22.22
														c0.96,5.28,3.98,10.16,8.27,13.38c-2.08-5.78-1.17-12.55,2.37-17.57c-0.14,12.3,4.5,24.59,12.72,33.74
														c0.44-5.17-2.16-9.28,1.32-15.52c0.95,6.42,3.72,12.56,7.9,17.54c0.48-4.04,2.07-7.95,4.56-11.18
														c0.87,6.48,3.37,12.73,7.2,18.02c3.23-4.19,6.12-8.65,8.62-13.31c0.12,11.1,1.06,22.2,2.79,33.17
														c-2.72-3.33-5.44-6.65-8.16-9.98c-1.97,3.84-3.94,7.68-5.91,11.51c-1.94-2.76-3.14-6.03-3.44-9.39
														c-4.66,4.78-7.77,11.05-8.73,17.65c-2.33-5.01-3.41-10.58-3.13-16.1c-3.11,4.72-6.21,9.44-9.31,14.16
														c-1.64-3.2-2.34-6.87-1.98-10.45c-5.57,3.86-10.24,9.01-13.55,14.92c-3.06-5.14-4.97-10.96-5.55-16.91
														c-3.18,3.82-5.87,8.05-7.98,12.56c-2.17-3.59-3.66-7.6-4.38-11.73c-3.73,3.88-6.8,8.4-9.03,13.3
														c-0.96-7.21-1.92-14.42-2.89-21.63c-3.65,2.46-6.75,5.73-9.02,9.5c-0.95-4.38-1.54-8.83-1.76-13.3
														c-5.67,5.86-8.39,14.43-7.15,22.49c-2.01-12.99-10.69-19.06-5.85-34.32c3.34-10.52,7.35-27.8,11.26-38.2
														C898.89,1229.56,902.83,1242.24,906.46,1247.79z"/>
												</g>
											</g>
										</g>
									</g>
								</g>
							</g>
						</g>
					</g>
				</g>
			</g>
		</g>
	</g>
	<g>
		<g>
			<g>
				<g>
					<g>
						<g>
							<g>
								<g>
									<g>
										<g>
											<g>
												<g>
													<path d="M925.14,1316.65c-1.27-5.25,0.88-11.16,5.22-14.38c0.21,7.45,4.15,14.7,10.29,18.92
														c0.06-4.23,2.21-8.39,5.63-10.88c-0.38,4.21,1.76,8.54,5.33,10.79c0.57-7.28,5.33-14.09,11.97-17.13
														c-3.3,7.99-1.34,17.87,4.76,24c0.46-5.27,2.52-10.39,5.83-14.51c-0.16,5.15,2.01,10.34,5.79,13.84
														c2.99-5.27,5.98-10.55,8.97-15.82c2.39,14.65,3.52,29.51,3.38,44.36c-0.88-3.07-1.46-2.32-4.03-4.21
														c-1.48,3.71-4.31,3.91-5.79,7.62c-2.49-2.2-4.1-5.37-4.42-8.68c-3.43,4.45-5.6,9.86-6.19,15.45
														c-3.19-3.91-4.83-9.05-4.49-14.08c-4.98,5.89-7.81,13.57-7.85,21.28c-4.42-5-7.79-10.94-9.82-17.3
														c-2.84,2.21-5.06,5.21-6.36,8.56c-1.46-2.42-2.92-4.83-4.38-7.25c-1.56,3.38-3.12,6.77-4.68,10.15
														c-4.33-5.52-7.7-11.65-11.42-17.47c-1.49,2.65-2.9,6.34-4.39,8.98c-1.26-3.82-4.51-8.98-5.92-12.77
														c-6.3,12.38-13.73-5.57-14.19-10.68c-0.67-7.5,3.49-18.67,8.07-24.84c1.37,2.06,4.77,4.54,5.73,6.85
														c0.49-4.87,2.7-9.62,7.04-12.04C919.5,1310.62,924.22,1312.86,925.14,1316.65z"/>
												</g>
											</g>
										</g>
									</g>
								</g>
							</g>
						</g>
					</g>
				</g>
			</g>
		</g>
	</g>
	<g>
		<g>
			<g>
				<g>
					<g>
						<g>
							<g>
								<g>
									<g>
										<g>
											<g>
												<g>
													<path d="M923.14,1368.31c2.03,7.34,2.66,8.66,5.2,12.39c1.54-1.77,3.08-3.53,4.61-5.3c1.31,3.76,4.38,6.86,8.12,8.22
														c-0.73-5.51,0.86-11.3,4.3-15.66c1.91,5.4,4.86,10.42,8.66,14.71c0.06-1.56,0.9-3.08,2.2-3.95
														c1.14,2.9,3.1,5.47,5.59,7.35c0.98-3.65,3.61-6.82,7.02-8.45c-0.29,3.94,1.79,7.96,5.16,10.01
														c1.81-5.92,4.91-11.45,9-16.09c-0.23,6.27,1.43,12.6,4.72,17.94c1.1-3.38,3.01-6.49,5.54-8.99c0,10.1,0,20.21,0,30.32
														c-10.85-1.91-22.61,4.4-27.03,14.49c-0.53-5.82-1.96-16.59,0.83-21.73c-6.69,1.74-13.25,7.3-18.99,11.17
														c0.2-3.16-4.11-12.48-3.91-15.64c-7.82,6.7-10.24,7.4-16.75,10.05c-6.09-6.25-8.58-12.01-9.54-20.92
														C917.17,1381.74,919.02,1373.41,923.14,1368.31z"/>
												</g>
											</g>
										</g>
									</g>
								</g>
							</g>
						</g>
					</g>
				</g>
			</g>
		</g>
	</g>
	<g>
		<g>
			<g>
				<g>
					<g>
						<g>
							<g>
								<g>
									<g>
										<g>
											<g>
												<g>
													<path d="M803.31,940.23c-18.08,0.11-33.34,14.21-51.27,16.54c8.16,6.26,18.73,9.29,28.97,8.29
														c-12.67,6.35-21.8,19.28-23.55,33.35c3.11-4.74,7.95-8.31,13.39-9.89c-5.45,5.03-8.42,12.63-7.83,20.03
														c2.99-3.22,7.06-5.43,11.4-6.17c-2.02,5.23-1.83,11.28,0.52,16.38c8.35-8.03,19.17-13.46,30.59-15.36
														c-5.9,8.81-15.57,14.18-23.84,20.81c-8.27,6.63-15.84,16.21-14.52,26.73c2.03-3.92,5.43-7.12,9.47-8.91
														c-1.78,13.3-3.55,26.59-5.33,39.89c10.62-5.24,20.07-12.82,27.47-22.05c-1.29,5.85-3.35,11.52-6.11,16.83
														c7.71-4.19,14.81-9.49,21.03-15.68c-1.36,5.04-2.72,10.08-4.08,15.11c15.71-9.84,17.69-32.03,29.38-46.41
														c9.21-11.33,24.4-17.7,30.52-30.95c-8.7,4.11-17.39,8.22-26.09,12.34c7.33-5.58,13.09-13.21,16.44-21.79
														c-3.3,2.13-6.59,4.26-9.89,6.39c5.53-6.8,9.39-14.94,11.16-23.53c-5.05,5.02-11.19,8.93-17.87,11.38
														c10.6-6.49,17.77-18.29,18.63-30.7c-5.17,19.7-36.49,23.5-39.86,43.6c4.73-3.2,11.11-3.96,16.47-5.92
														c-3.92,6.03-12.93,9.94-16.84,15.97c2.81-3.12,11.68-3.24,15.77-4.2c-6.46,11.76-15.2,22.25-25.61,30.71
														c3.57-8.75,8.3-17.03,14.05-24.53c-4.97,2.42-9.94,4.83-14.92,7.25c2.28-13.04,7.59-25.54,15.4-36.23
														c-9.15,4.05-18.3,8.11-27.45,12.17c9.52-14.33,24.27-25.1,40.81-29.83c-11.3,0.22-22.6,0.44-33.91,0.66
														c-0.76,0.02,4.33-6.13,5.37-6.76c3.58-2.18,7.58-1.13,11.45-1.13c7.98-0.01,15.75,3.6,22.88-1.29
														C837.5,944.9,814.48,940.17,803.31,940.23z"/>
												</g>
											</g>
										</g>
									</g>
								</g>
							</g>
						</g>
					</g>
				</g>
			</g>
		</g>
	</g>
	<g>
		<g>
			<g>
				<g>
					<g>
						<g>
							<g>
								<g>
									<g>
										<g>
											<g>
												<g>
													<path d="M554.4,955.23c-2.26,0.57-4.62,1.2-6.31,2.8c-3.96,3.75-1.85,10.97,2.72,13.94
														c4.57,2.97,10.42,2.87,15.86,2.47c13.97-1.02,27.84-3.29,41.4-6.77c-9.78,4.07-18.9,9.72-26.9,16.66
														c-3.35,2.91-6.78,6.73-6.25,11.14c0.93,7.82,11.88,8.78,19.61,7.28c14.34-2.78,28.5-6.51,42.35-11.15
														c-9.06,4.33-17.84,9.23-26.28,14.67c-3.14,2.03-6.4,4.32-7.85,7.77c-3,7.15,3.93,15.32,11.59,16.53
														c7.66,1.21,15.19-2.33,22.03-5.98c6.83-3.66,13.98-7.65,21.73-7.45c-11.65,3.25-20.4,14.89-20.27,26.99
														c0.02,1.96,0.31,4.05,1.65,5.49c2.42,2.6,6.67,1.65,10.01,0.45c12.42-4.46,24.57-9.68,36.36-15.61
														c-3.97,3.11-8.06,6.37-10.33,10.87c-2.27,4.5-2.15,10.62,1.64,13.94c2.56,2.24,6.17,2.76,9.56,2.89
														c8.03,0.32,16.12-1.04,23.61-3.96c-4.43,9.27-7.65,19.44-6.87,29.68c0.78,10.24,6.18,20.55,15.37,25.14
														c9.19,4.59,22.04,1.79,26.88-7.27c-3.64,6.27-1.07,14.66,4.01,19.83c5.08,5.17,12.09,7.88,18.88,10.43
														c6.53,2.46,13.66,4.96,20.34,2.94c9.73-2.93,14.67-14.16,23.85-18.52c3.72-1.77,7.93-2.29,11.7-3.95
														c6.77-2.98,11.44-9.29,15.22-15.65c9.33-15.71,17.32-30.3,17.06-51.66c-2.85,9.37-9.14,17.65-17.41,22.9
														c1.2-8.41,1.15-17-0.13-25.4c-2.85,13.63-8.6,26.65-16.76,37.93c0.57-2.98-0.25-8.11,0.32-11.09
														c-5.96,12.25-13.78,25.05-25.02,32.75c1.56-6.27,3.12-12.54,4.69-18.81c-5.44,8.92-13.95,15.93-23.74,19.57
														c1.62-3.32,3.23-6.64,4.85-9.96c-5.85,2.68-11.71,5.36-17.56,8.03c1.99-4.94,3.99-9.87,5.98-14.81
														c-3.4,1.55-6.8,3.1-10.19,4.64c-1.4-5.58-1.32-11.53,0.23-17.07c-3.64,2.62-7.29,5.23-10.93,7.85
														c1.35-3.06,2.7-6.11,4.05-9.17c-2.48,1.5-4.95,3-7.43,4.5c4.15-7.8,8.3-15.6,12.45-23.39
														c-8.47,7.24-17.64,13.65-27.35,19.12c3.09-5.59,6.18-11.19,9.28-16.78c-2.77,0.87-5.53,1.75-8.3,2.62
														c3.49-5.32,6.98-10.64,10.47-15.96c-4.66,2.42-9.05,5.37-13.05,8.77c6.55-7.22,12.39-15.07,17.42-23.42
														c-5.33,2.95-10.66,5.89-15.99,8.84c2.96-2.39,5.42-5.4,7.17-8.78c-3.39,1.57-6.77,3.14-10.16,4.7
														c6.04-7.52,12.09-15.04,18.13-22.56c-7.47,6.07-16.19,10.61-25.44,13.25c5.42-3.14,9.95-7.78,12.97-13.26
														c-5.34,2.62-11.23,4.13-17.17,4.4c5.85-9.67,11.7-19.33,17.55-29c-8.33,8.83-18.42,16-29.49,20.96
														c2.42-8.95,6.71-17.4,12.51-24.64c-8.36,4.65-17.24,8.36-26.43,11.03c13.44-10.24,26.48-21,39.08-32.25
														c-15.4,8.77-30.41,18.22-44.97,28.31c4.05-5.49,8.1-10.97,12.15-16.46c-5.84,2.34-11.68,4.68-17.52,7.02
														c9.07-6.13,17.6-13.05,25.47-20.66c-11.05,5.65-22.1,11.31-33.15,16.96c3.59-2.18,6.22-5.87,7.11-9.97
														c-3.81,0.36-7.54,1.5-10.91,3.31c11.74-8.31,23.47-16.63,35.21-24.94c-16.54,9.08-33.54,17.32-50.92,24.67
														c5.97-5.53,11.93-11.07,17.9-16.6c-3.51,1.32-7.03,2.65-10.54,3.98c2.27-1.62,12.39-6.62,18.25-9.13
														c-7.26,0.56-13.69,5.03-13.73,3.83c-0.04-1.2,1.1-2.07,2.11-2.71c6.4-4.07,12.8-8.14,19.2-12.22
														c-14.21,2.34-28.24,5.81-41.91,10.36c3.4-1.87,6.51-4.3,9.15-7.15c-2.82,1.35-6.09,1.74-9.14,1.1
														c1.97-2.53,3.94-5.07,5.91-7.6c-9.52,2.63-19.03,5.26-28.55,7.89c3.74-2.97,7.8-5.98,10.97-9.28
														C606.91,940.26,580.56,948.6,554.4,955.23z"/>
												</g>
											</g>
										</g>
									</g>
								</g>
							</g>
						</g>
					</g>
				</g>
			</g>
		</g>
	</g>
	<g>
		<g>
			<g>
				<g>
					<g>
						<g>
							<g>
								<g>
									<g>
										<g>
											<g>
												<g>
													<path d="M439.47,955.64c5-0.55,10-1.11,15-1.66c-13.26,4.01-27.47,8.67-35.66,19.84c-8.2,11.17-5.69,30.81,7.66,34.52
														c-7.88,6.07-5.68,19.71,2.29,25.67c7.97,5.95,19.06,5.7,28.62,2.94c-7.32,5.77-3.63,18.63,4.44,23.29
														c8.08,4.65,18.09,3.61,27.33,2.43c-5.07,6.89,0.79,17.59,9.03,19.88c8.25,2.29,16.99-1.46,23.99-6.39
														c-5.89,7.94,1.17,20.11,10.64,22.95c9.47,2.85,19.57-0.55,28.86-3.91c-1.5,8.87,6.93,16.92,15.79,18.44
														c8.86,1.51,17.78-1.66,26.22-4.77c6.78,8.99,21.12,11.02,30.13,4.25c-0.42,6.56,3.3,13.21,9.11,16.29
														c5.81,3.08,13.4,2.42,18.59-1.62c-3.82,10.32,6.05,21.58,16.88,23.51c10.84,1.93,21.68-2.52,31.79-6.88
														c10.4,10.26,29.51,9.52,39.07-1.53c-4.26,0.86-8.82,1.57-12.83-0.12c-4-1.69-6.89-6.71-4.78-10.51
														c-4.93,5.28-14.64,1.61-17.72-4.93c-3.08-6.54-1.64-14.21-0.13-21.28c-3.19,5.37-9.16,9.67-16.06,6.73
														c-5.83-2.48-9.01-8.81-8.35-15.11c0.89-8.57,3.15-20.44,9.02-27.16c-6.16,4.5-8.98,13.23-16.36,15.21
														c-7.37,1.98-16.11,0.78-21.18-4.93c-5.07-5.71-4.7-18.86,2.16-22.19c-16.44,1.89-22.33,10.82-34.34,10.6
														c-5.86-0.11-12.34-1.26-15.92-5.9c-3.58-4.63,4.76-13.42,7.81-20.33c-5.49,4.03-15.12,14.21-21.92,14.35
														c-6.8,0.14-14.02-3.62-16.2-10.07c-3.36-9.93,6.1-14.71,13.98-25.85c-13.84,5.19-18.13,12.43-29.4,10.72
														c-5.79-0.88-10.96-4.61-12.82-10.16c-3.11-9.25,4.42-17.32,12.1-22.19c-9.45,4.96-19.82,10.09-30.54,5.95
														c-5.24-2.03-9.14-6.81-9.34-12.43c-0.35-9.97,10.3-12.53,13.99-19.91c-9.1,4.32-20.93,8.32-28.2,1.05
														c-4.74-4.74-5.17-12.14-2.06-18.08c5.11-9.79,15.64-13.81,25.27-17.05c-31.39,1.27-48.99,21.34-64.9,7.41
														c-4.47-3.91-2.23-11.73,8.94-20.66C462.2,927.84,451.66,942.97,439.47,955.64z"/>
												</g>
											</g>
										</g>
									</g>
								</g>
							</g>
						</g>
					</g>
				</g>
			</g>
		</g>
	</g>
	<g>
		<g>
			<g>
				<g>
					<g>
						<g>
							<g>
								<g>
									<g>
										<g>
											<g>
												<g>
													<path d="M800.63,891.3c-8.69-6.27-19.06-10.2-29.73-11.24c14.35-2.29,29.7-4.45,42.88,1.66
														c9.13,4.24,18.14,12.44,27.75,9.48c3.03-4.41,2.57-10.9-1.05-14.85c-3.62-3.95-10.04-4.96-14.7-2.31
														c10.77-14.25,26.97-9.04,40.94-5.21c-4.3,1.09-8.18,3.77-10.74,7.39c3.44-1.62,7.21-2.54,11.01-2.69
														c-2.2,6.49-5.11,12.75-8.65,18.62c11.8-4.44,21.53-14.07,26.09-25.83c1.5,10.57,2.92,21.32,1.3,31.87
														c-1.62,10.55-6.72,21.04-15.73,26.77c-17.68,11.25-45.01,5.38-60.01-7.51c-13.11-11.27-21.5-19.57-44.2-18.04
														C770.87,897.76,796.25,888.14,800.63,891.3z"/>
												</g>
											</g>
										</g>
									</g>
								</g>
							</g>
						</g>
					</g>
				</g>
			</g>
		</g>
	</g>
	<g>
		<g>
			<g>
				<g>
					<g>
						<g>
							<g>
								<g>
									<g>
										<g>
											<g>
												<g>
													<g>
														<path d="M395.62,858.3c-4.8,0.08-9.6,0.16-14.4,0.24c-1.74-9.08,0.07-18.8,4.95-26.65c-3.91,1.25-7.82,2.5-11.73,3.75
															c-5.33-5.94-1.67-15.49,3.43-21.62c5.1-6.13,11.8-11.97,12.45-19.92c-12.62,0.96-25.69,1.87-37.57-2.49
															c-11.88-4.36-22.25-15.53-21.43-28.16c-16.73-9.39-33.46-21.84-39.36-40.1c-4.39-13.56-1.81-29.18,6.69-40.61
															c-10.94,5.39-23.63,7.16-35.63,4.97c-3.51-0.64-7.43-1.99-8.78-5.3c-1.16-2.82,0.01-6.04,1.49-8.71
															c4.58-8.24,11.98-14.46,18.32-21.44c6.35-6.97,11.96-15.6,11.53-25.02c-0.43-9.42-9.5-18.69-18.58-16.14
															c26.73-22.21,62.64-32.99,97.18-29.19c-17.06-9.36-33.75-8.58-50.63-12.87c-2.96-0.75-6.32-1.84-7.45-4.68
															c-1.44-3.61,1.72-7.36,4.9-9.59c18.88-13.3,44.98-9.26,66.37-0.55c-16.84-15.73-36.83-23.45-55.16-35.59
															c-18.33-12.14-43.83-19.36-61.51-6.29c7.67,3.12,16.42,2.8,24.06,6c7.64,3.19,13.98,12.7,9.36,19.57
															c-1.84,2.73-4.94,4.29-7.9,5.73c-10.64,5.17-22.65,10.46-33.9,6.8c-11.25-3.67-12.42-17.54-6.83-27.28
															c-8.4,7.73-17.84,15.91-29.25,16.32c-11.41,0.41-23.18-12.07-17.54-22l-20.88,12.23c-9.72,9.91-7.91,28.52,3.53,36.37
															c5.47,3.76,12.21,5.06,18.33,7.62c6.12,2.56,12.21,7.22,13.04,13.81c0.72,5.7-12.95,13.95-18.05,12.97
															c23.23,11.14,30.04,2.01,38.54,5.59c9.16,3.86,17.5,17.33,27.03,15.63c-10.76,3.59-20.96,8.86-30.08,15.61
															c-2.21,1.64-4.44,3.45-5.58,5.95c-2.5,5.45,1.31,12.12,6.63,14.88c5.33,2.76,11.62,2.65,17.62,2.47
															c-10.49,5.71-15.06,20.24-9.71,30.93c5.35,10.68,24,17.25,34.86,12.27c-11.17,22.34,3.35,33.51-0.66,61.19
															c5.89-6.87,17.29-2.03,23.69,4.37c6.4,6.4,13.17,14.73,22.19,13.88c-8.89,5.78-5.12,20.97,4.14,26.13
															c9.26,5.16,20.67,3.45,31.1,1.59c-3.68,7.88-7.44,16.29-6.41,24.93c1.03,8.64,8.96,17.06,17.46,15.22
															c-5.54,2.48-8.95,8.98-7.85,14.95c1.1,5.96,6.61,10.82,12.67,11.16c-2.51,7.33-5.02,14.65-7.52,21.98
															c-16.3-16.87-32.6-33.74-48.89-50.61c7.5,14.24,15.2,28.77,26.9,39.82c11.7,11.05,28.34,18.2,44,14.5
															C382.19,887.41,386.2,870.9,395.62,858.3z"/>
													</g>
												</g>
											</g>
										</g>
									</g>
								</g>
							</g>
						</g>
					</g>
				</g>
			</g>
		</g>
	</g>
	<g>
		<g>
			<g>
				<g>
					<g>
						<g>
							<g>
								<g>
									<g>
										<g>
											<g>
												<g>
													<path d="M389.59,560.27c11.7,1.16,28.55,13.06,31.49,24.44c-11.81,6.4-24.23-1.54-39.07,4.49
														c10.51,1.7,21.6,3.63,28.78,12.39c3.26,3.98,4.89,9.18,3.74,14.2c-2.28,9.87-12.2,12.41-20.92,14.13
														c-12.91,2.55-25.83,5.1-38.74,7.65c12.55,1.72,24.47,7.79,33.21,16.97c1.37,1.44,2.44,3.18,2.91,5.11
														c1.89,7.8-6.59,12.34-13.64,14.43c-15.02,4.45-30.5,7.33-46.11,8.58c17.92,3.33,31.04,7.47,48.3,13.33
														c-13.78,0.74-24.43,3.21-34.07,9.49l18.23,6.17l-35.55,18.41c6.27,0.66,18.08,2.08,24.28,0.94
														c6.2-1.13,13.98,0.37,16.23,6.25c2.59,6.77-11.33,13.5-17.06,17.94c6.68-2.73,22.8,1.87,24.08,8.97
														c1.28,7.1-5.12,14.54-12.33,14.33c5.56,5.18,14.71-0.8,22.06-1.21c9.18-0.5,19.29-0.72,26.47,5.03
														c7.17,5.76,7.32,19.83-1.54,22.31c7.13,1.35,14.46-0.25,21.71-0.25c7.26,0.01,15.37,2.27,18.82,8.65
														c3.45,6.38-4.1,17.18-14.39,20.34c29.27,2.43,56.23-8.97,79.39,0.94c-18.69,4.16-40.3,1.3-54.01,19.15
														c14.27-6.13,17.51-6.16,26.24-3.82c8.73,2.34,16.37,9.85,17.03,18.86c0.66,9.01-11.08,20.87-20.07,19.97
														c12.81,5.16,30.37,8.55,43.93,11.17c-3.47-2.38-7.59-7.04-9.37-10.85c-1.78-3.82-0.86-9.24,3-10.92
														c2.51-1.09,5.38-0.35,8.12-0.33c7.83,0.07,15.05-6.87,15.3-14.69c0.11-3.64-1.08-7.19-1.34-10.83
														c-0.94-13.05,14.12-30.27,26.92-27.59c-15.64-12.84-29.6-5.84-43.9-10.96c-14.29-5.11-35.85-5.45-49.37,1.46
														c5.74-7.36,5.18-21.08-3.4-24.78c-8.57-3.7-18.4-1.89-27.55-0.02c5.44-10.26-7.51-21-18.97-22.9
														c-11.46-1.89-25.02-1.18-32.38-10.17c-3.54-4.33-6.42-11.14-11.97-10.47c7.22-2.82,11.12-12.09,8.09-19.22
														c-3.03-7.14-12.4-10.76-19.45-7.53c6.83-10.4,30.64-10.65,43.08-11.03l-27.39-10.14l24.58-12.58
														c-4.87-4.11-11.35-6.26-17.71-5.88c15.7-4.73,30.32-12.99,42.46-24.01c1.26-1.14,2.17-2.68,2.37-4.37
														c1.07-9.33-16.23-5.22-21.75-12.45c10.89-4.21,22.61-9.12,28.35-19.28c5.74-10.17,0.5-26.62-11.17-26.86
														c6,0.74,11.65-5.82,10.02-11.64c-0.87-3.13-3.34-5.63-4.19-8.77c-1.56-5.78,4.14-12.22,10.07-11.37
														c-9.87-1.42-24.38-20.41-36.57-23.84C425.4,550.87,407.82,557.93,389.59,560.27z"/>
												</g>
											</g>
										</g>
									</g>
								</g>
							</g>
						</g>
					</g>
				</g>
			</g>
		</g>
	</g>
	<g>
		<g>
			<g>
				<g>
					<g>
						<g>
							<g>
								<g>
									<g>
										<g>
											<g>
												<g>
													<path d="M445.61,654.1c6.03-2.53,13.65-0.56,17.69,4.58c4.05,5.14,4.17,13.01,0.28,18.28
														c-8.03,10.89-25.07,6.62-37.97,10.69c4.32,2.24,8.33,5.07,11.89,8.39c-6.45,1.26-12.64,3.84-18.07,7.54
														c6.46,0.3,12.69,3.73,16.41,9.01c-13.14,2.07-30.03,8.73-28.38,21.93c13.05-11.58,33.02-11.42,49.61-6.04
														c16.6,5.38,31.46,15.12,47.84,21.12c11.83,4.34,25.59,6.51,36.62,0.44c11.03-6.08,16.09-23.12,6.8-31.63
														c7.25-5.01,14.83-10.17,24.08-10.02c4.53,0.07,8.88,2.04,12,5.32c7.71,8.1-7.69,6.16-13.79,21.42
														c10.38-5.08,30.92-8.15,42.07-11.21c11.14-3.06,22.63-11.58,22.26-23.13c-0.43-13.36-15.52-20.77-22.53-32.16
														l-1.27,7.69c-9.59,3.89-20.25-3.26-26.29-11.66c-6.05-8.4-9.98-18.58-17.97-25.16c-17.04-14.03-42.4-5.33-64.34-7.79
														c7.03,3.04,13.31,7.78,18.16,13.7c-5.96,4.6-13.07,7.7-20.5,8.95c7.19,3.31,14.74,6.91,18.48,14.2
														c1.77,3.45,2.2,7.55,0.87,11.2c-2.27,6.21-7.81,7.34-12.99,8.05c-11.02,1.52-22.19,1.93-33.29,1.22
														c9.73,2.52,20.83-4.65,22.54-14.55c1.71-9.9-6.33-20.38-16.34-21.28c7.72,0.48,13.53-8.04,13.2-15.76
														c-0.32-7.41-4.69-14.57-8.67-20.56c48.92-2.48,1.23-43.05-14.12-20.93c-7.86,11.32,10.43,19.43,8.75,32.77
														C476.08,649.04,453.73,640.1,445.61,654.1z"/>
												</g>
											</g>
										</g>
									</g>
								</g>
							</g>
						</g>
					</g>
				</g>
			</g>
		</g>
	</g>
	<g>
		<g>
			<g>
				<g>
					<g>
						<g>
							<g>
								<g>
									<g>
										<g>
											<g>
												<g>
													<path d="M672.24,788.17c10.05,1.06,20.68-6.86,21.04-16.97c0.24-6.72-4.95-12.87-11.13-14.94
														c5.36-0.57,10.66-1.74,15.76-3.47c-1.28-8.53-10.09-14.29-18.68-15.04c-8.59-0.75-17,2.32-25.08,5.34
														c-0.53-8.47,9.35-13.98,17.83-14.04c8.48-0.05,16.89,3.07,25.3,1.96c1.81-6.92-4.54-14.21-11.41-14.62
														c2.67-1.53,4.27-5.66,2.91-8.76c-1.89-4.29-6.77-6.34-11.31-7.53c-4.54-1.19-9.46-2.07-12.85-5.31l-6.25,18.02
														l7.31,7.89c-1.91-1.43-10.75-3.53-11.15-4.81c-16.78,5.84-30.71,19.67-36.31,36.57c13.36-2.33,27.24-1.64,40.31,2
														c-8.57,1.71-16.6,6.02-22.78,12.2c13.62-4.99,29.6-2.95,41.53,5.3c-14.61,9.62-30.67,12.13-45.29,21.75
														c10.61-1.12,17.24-1.06,24.01,0.56c8.45,2.02,11.56,4.77,12.46,11.67c-20.91-1.37-42.62,2.29-58.66,18.3
														c10.46-3.29,22.52-0.98,31.03,5.94c3.38,2.75,6.41,7.13,4.88,11.21c-0.8,2.11-2.65,3.61-4.42,5
														c-9.63,7.56-19.25,15.12-28.88,22.69c-4.37-6.53-10.84-11.64-18.21-14.38c3.39-3.46,6.77-6.92,10.16-10.37
														c-12.03,3.66-23.47,9.26-33.74,16.52c12.69,0.06,25.25,5.75,33.67,15.25c6.57,7.41,11.28,17.41,20.54,20.9
														c3.01-14.69,14.27-27.39,28.49-32.14c6.66-2.23,14.32-3.08,19.1-8.23c6.69-7.21,3.83-19.65-3.39-26.34
														s-17.31-9.08-26.93-11.14c12.41,0.14,24.82,0.27,37.23,0.41c3.15,0.03,6.44,0.04,9.27-1.34
														c6.81-3.31,7.64-13.52,3.23-19.68C687.41,792.38,679.67,789.59,672.24,788.17z"/>
												</g>
											</g>
										</g>
									</g>
								</g>
							</g>
						</g>
					</g>
				</g>
			</g>
		</g>
	</g>
	<g>
		<g>
			<g>
				<g>
					<g>
						<g>
							<g>
								<g>
									<g>
										<g>
											<g>
												<g>
													<path d="M718.76,778.93c-2.11,8.48-12.08,7.96-16.11,10.13c9.74,3.44,16.08,14.59,14.05,24.72
														c-2.03,10.14-12.16,17.99-22.48,17.42c8.8,4.7,11.85,17.62,6.09,25.76c-2.31,3.27-5.66,5.64-8.35,8.61
														c-11.66,12.86-8.6,32.82-4.82,49.76c12.66-0.04,26.17,4.07,38.83,4.03c-7.87-10.95-15.03-29.81-8.61-41.66
														c3.97-7.32,11.9-11.62,16.75-18.38c4.85-6.76,4.12-19.06-4.08-20.45c9.29-4.61,13.48-17.33,8.74-26.56
														c-2.27-4.43-6.15-7.85-8.56-12.21c-2.41-4.36-2.85-10.62,1.11-13.63c1.9-1.44,4.39-1.81,6.49-2.94
														c6.97-3.74,5.58-16.29-2.04-18.41c10.48-2.94,22.66,2.16,27.92,11.69c13.28-3.48,16.92-22.25,10.04-34.13
														c-9.15-15.79-44.3-37.83-54.45-11.76c-2.9,7.43,2.97,13.47,1.64,19.11c-1.54,6.53-7.77,10.21-7.77,10.21
														s-7.47,10.56,4.35,17.34C718.18,777.99,718.95,778.17,718.76,778.93z"/>
												</g>
											</g>
										</g>
									</g>
								</g>
							</g>
						</g>
					</g>
				</g>
			</g>
		</g>
	</g>
	<g>
		<g>
			<g>
				<g>
					<g>
						<g>
							<g>
								<g>
									<g>
										<g>
											<g>
												<g>
													<path d="M794.68,815.47c-5.57,1.8-10.58-0.6-16.21-2.21c-9.75-2.8-18.24-5.58-30.27-7.6
														c14.87,6.12,25.69,9.48,36.62,13.55c1.68,0.63,3.02,2.1,3.22,3.88c0.33,3-2.39,4.06-4.71,4.69
														c-11.44,3.12-22.36,3.34-35.07,5.44c10.19,0.51,20.33,2.11,30.19,4.76c2,0.54,3.7,2.1,4.08,4.14
														c0.66,3.49-2.65,5.18-5.48,6.19c-9.75,3.5-19.83,6.09-30.06,7.72l39.29,5.31c-10.46,6.34-22.64,9.8-34.87,9.91
														c19.49,3.64,40.12,0.86,57.96-7.81c-1.82,3.38-4.47,6.32-7.65,8.47c7.18-1.46,20.08-8.19,27-10.62
														c-7.59-5.17-21.59-2.98-29.71-8.86l22.27-4.54c-7.81-4.38-18.98-6.91-27.42-9.87l30.77-1.67
														c-7.82-5.58-15.27-10.04-21.86-14.97c9.53,2.02,17.77,4.17,28.19,5.66c-7.82-4.08-14.19-11.78-20.37-18.08
														c18.66,10.53,37.89,20.02,57.59,28.44c-13.31-11.12-25.26-19.68-41.13-35.65c9.43,3.5,15.82,14.13,26.99,14.51
														c-16.38-13.03-25.53-41.19-43.46-55.5c6.76,5.39,12.03,22.43,14.04,30.42c-11.31-8.11-14.73-5.94-26.44-2.33
														c-15.03,4.64-24.55,4.7-40.18,0.27C769.32,795.76,784.95,803.98,794.68,815.47z"/>
												</g>
											</g>
										</g>
									</g>
								</g>
							</g>
						</g>
					</g>
				</g>
			</g>
		</g>
	</g>
	<g>
		<g>
			<g>
				<g>
					<g>
						<g>
							<g>
								<g>
									<g>
										<g>
											<g>
												<g>
													<path d="M1501.72,896.85c-13.96-2.84-29.35-0.19-42.99,3.29c-16.91,4.31-33.55,8.4-50.99,9.88
														c-34.29,2.9-68.9,3.49-103.27,5.04c-16.89,0.76-34.02,1.78-50.92,0.9c-15.95-0.83-32.78-7.29-48.66-4.09
														c-12.61,2.54-23.41,10.42-35.39,14.77c-16.35,5.93-34.86,2.2-44.08-13.63c-2.65-4.56-5.72,3.21-3.94,6.33
														c5.97,10.45,14.54,18.28,26.7,20.42c13.93,2.44,26.72-4.04,39-9.67c6.75-3.1,13.85-6.02,21.28-6.97
														c9.65-1.24,19.12,1.67,28.56,3.18c17.52,2.8,35.23,3.19,52.91,2.49c35.92-1.42,71.9-3.1,107.78-5.35
														c35.98-2.25,68.57-15.86,103.71-21.76C1503.24,901.35,1503.66,897.25,1501.72,896.85L1501.72,896.85z"/>
												</g>
											</g>
										</g>
									</g>
								</g>
							</g>
						</g>
					</g>
				</g>
			</g>
		</g>
	</g>
	<g>
		<g>
			<g>
				<g>
					<g>
						<g>
							<g>
								<g>
									<g>
										<g>
											<g>
												<g>
													<path d="M1197.39,940.23c18.08,0.11,33.34,14.21,51.27,16.54c-8.16,6.26-18.73,9.29-28.97,8.29
														c12.67,6.35,21.8,19.28,23.55,33.35c-3.11-4.74-7.95-8.31-13.39-9.89c5.45,5.03,8.42,12.63,7.84,20.03
														c-2.99-3.22-7.06-5.43-11.4-6.17c2.02,5.23,1.83,11.28-0.52,16.38c-8.35-8.03-19.17-13.46-30.59-15.36
														c5.9,8.81,15.57,14.18,23.84,20.81c8.27,6.63,15.84,16.21,14.51,26.73c-2.03-3.92-5.43-7.12-9.47-8.91
														c1.78,13.3,3.55,26.59,5.33,39.89c-10.62-5.24-20.07-12.82-27.47-22.05c1.29,5.85,3.35,11.52,6.11,16.83
														c-7.71-4.19-14.81-9.49-21.03-15.68c1.36,5.04,2.72,10.08,4.08,15.11c-15.71-9.84-17.69-32.03-29.38-46.41
														c-9.21-11.33-24.4-17.7-30.52-30.95c8.7,4.11,17.39,8.22,26.09,12.34c-7.33-5.58-13.09-13.21-16.44-21.79
														c3.3,2.13,6.59,4.26,9.89,6.39c-5.53-6.8-9.39-14.94-11.16-23.53c5.05,5.02,11.19,8.93,17.87,11.38
														c-10.6-6.49-17.77-18.29-18.63-30.7c5.17,19.7,36.49,23.5,39.86,43.6c-4.73-3.2-11.11-3.96-16.47-5.92
														c3.92,6.03,12.92,9.94,16.84,15.97c-2.81-3.12-11.68-3.24-15.77-4.2c6.46,11.76,15.2,22.25,25.61,30.71
														c-3.57-8.75-8.3-17.03-14.05-24.53c4.97,2.42,9.94,4.83,14.92,7.25c-2.28-13.04-7.59-25.54-15.4-36.23
														c9.15,4.05,18.3,8.11,27.46,12.17c-9.52-14.33-24.27-25.1-40.81-29.83c11.3,0.22,22.61,0.44,33.91,0.66
														c0.76,0.02-4.33-6.13-5.37-6.76c-3.58-2.18-7.58-1.13-11.45-1.13c-7.98-0.01-15.75,3.6-22.88-1.29
														C1163.2,944.9,1186.22,940.17,1197.39,940.23z"/>
												</g>
											</g>
										</g>
									</g>
								</g>
							</g>
						</g>
					</g>
				</g>
			</g>
		</g>
	</g>
	<g>
		<g>
			<g>
				<g>
					<g>
						<g>
							<g>
								<g>
									<g>
										<g>
											<g>
												<g>
													<path d="M1446.3,955.23c2.26,0.57,4.62,1.2,6.31,2.8c3.96,3.75,1.85,10.97-2.72,13.94
														c-4.57,2.97-10.42,2.87-15.86,2.47c-13.97-1.02-27.84-3.29-41.4-6.77c9.78,4.07,18.9,9.72,26.9,16.66
														c3.36,2.91,6.78,6.73,6.25,11.14c-0.93,7.82-11.88,8.78-19.62,7.28c-14.34-2.78-28.5-6.51-42.35-11.15
														c9.06,4.33,17.84,9.23,26.28,14.67c3.14,2.03,6.4,4.32,7.85,7.77c3,7.15-3.93,15.32-11.59,16.53s-15.2-2.33-22.03-5.98
														c-6.83-3.66-13.98-7.65-21.73-7.45c11.65,3.25,20.4,14.89,20.27,26.99c-0.02,1.96-0.31,4.05-1.64,5.49
														c-2.42,2.6-6.67,1.65-10.01,0.45c-12.42-4.46-24.57-9.68-36.36-15.61c3.97,3.11,8.06,6.37,10.33,10.87
														c2.27,4.5,2.15,10.62-1.64,13.94c-2.56,2.24-6.17,2.76-9.56,2.89c-8.03,0.32-16.12-1.04-23.61-3.96
														c4.43,9.27,7.65,19.44,6.87,29.68c-0.78,10.24-6.17,20.55-15.37,25.14c-9.19,4.59-22.04,1.79-26.88-7.27
														c3.64,6.27,1.07,14.66-4.01,19.83c-5.08,5.17-12.09,7.88-18.88,10.43c-6.53,2.46-13.65,4.96-20.34,2.94
														c-9.73-2.93-14.67-14.16-23.85-18.52c-3.72-1.77-7.93-2.29-11.7-3.95c-6.77-2.98-11.44-9.29-15.22-15.65
														c-9.33-15.71-17.32-30.3-17.06-51.66c2.85,9.37,9.14,17.65,17.41,22.9c-1.19-8.41-1.15-17,0.14-25.4
														c2.85,13.63,8.6,26.65,16.76,37.93c-0.57-2.98,0.25-8.11-0.32-11.09c5.96,12.25,13.78,25.05,25.02,32.75
														c-1.56-6.27-3.13-12.54-4.69-18.81c5.44,8.92,13.94,15.93,23.73,19.57c-1.62-3.32-3.23-6.64-4.85-9.96
														c5.85,2.68,11.71,5.36,17.56,8.03c-1.99-4.94-3.99-9.87-5.99-14.81c3.4,1.55,6.8,3.1,10.19,4.64
														c1.4-5.58,1.33-11.53-0.23-17.07c3.64,2.62,7.29,5.23,10.93,7.85c-1.35-3.06-2.7-6.11-4.05-9.17
														c2.48,1.5,4.95,3,7.43,4.5c-4.15-7.8-8.3-15.6-12.45-23.39c8.47,7.24,17.64,13.65,27.35,19.12
														c-3.09-5.59-6.18-11.19-9.28-16.78c2.77,0.87,5.53,1.75,8.3,2.62c-3.49-5.32-6.98-10.64-10.47-15.96
														c4.66,2.42,9.04,5.37,13.05,8.77c-6.55-7.22-12.39-15.07-17.42-23.42c5.33,2.95,10.66,5.89,15.99,8.84
														c-2.96-2.39-5.42-5.4-7.17-8.78c3.39,1.57,6.77,3.14,10.16,4.7c-6.04-7.52-12.09-15.04-18.13-22.56
														c7.47,6.07,16.18,10.61,25.44,13.25c-5.42-3.14-9.95-7.78-12.97-13.26c5.34,2.62,11.23,4.13,17.17,4.4
														c-5.85-9.67-11.7-19.33-17.55-29c8.33,8.83,18.42,16,29.49,20.96c-2.42-8.95-6.71-17.4-12.51-24.64
														c8.36,4.65,17.24,8.36,26.43,11.03c-13.44-10.24-26.48-21-39.08-32.25c15.4,8.77,30.41,18.22,44.97,28.31
														c-4.05-5.49-8.1-10.97-12.15-16.46c5.84,2.34,11.68,4.68,17.52,7.02c-9.07-6.13-17.6-13.05-25.47-20.66
														c11.05,5.65,22.1,11.31,33.15,16.96c-3.59-2.18-6.22-5.87-7.11-9.97c3.81,0.36,7.54,1.5,10.91,3.31
														c-11.74-8.31-23.47-16.63-35.21-24.94c16.54,9.08,33.54,17.32,50.92,24.67c-5.97-5.53-11.93-11.07-17.9-16.6
														c3.52,1.32,7.03,2.65,10.54,3.98c-2.27-1.62-12.39-6.62-18.26-9.13c7.26,0.56,13.69,5.03,13.73,3.83
														c0.04-1.2-1.1-2.07-2.11-2.71c-6.4-4.07-12.8-8.14-19.2-12.22c14.22,2.34,28.25,5.81,41.91,10.36
														c-3.4-1.87-6.51-4.3-9.15-7.15c2.82,1.35,6.08,1.74,9.14,1.1c-1.97-2.53-3.94-5.07-5.91-7.6
														c9.52,2.63,19.03,5.26,28.55,7.89c-3.74-2.97-7.8-5.98-10.97-9.28C1393.79,940.26,1420.14,948.6,1446.3,955.23z"/>
												</g>
											</g>
										</g>
									</g>
								</g>
							</g>
						</g>
					</g>
				</g>
			</g>
		</g>
	</g>
	<g>
		<g>
			<g>
				<g>
					<g>
						<g>
							<g>
								<g>
									<g>
										<g>
											<g>
												<g>
													<path d="M1561.23,955.64c-5-0.55-10-1.11-15-1.66c13.26,4.01,27.47,8.67,35.66,19.84c8.2,11.17,5.69,30.81-7.66,34.52
														c7.88,6.07,5.68,19.71-2.29,25.67c-7.97,5.95-19.06,5.7-28.62,2.94c7.32,5.77,3.63,18.63-4.44,23.29
														c-8.08,4.65-18.09,3.61-27.33,2.43c5.07,6.89-0.79,17.59-9.03,19.88s-16.99-1.46-23.99-6.39
														c5.89,7.94-1.17,20.11-10.64,22.95c-9.47,2.85-19.57-0.55-28.86-3.91c1.5,8.87-6.93,16.92-15.79,18.44
														s-17.78-1.66-26.22-4.77c-6.78,8.99-21.12,11.02-30.13,4.25c0.42,6.56-3.3,13.21-9.11,16.29
														c-5.81,3.08-13.4,2.42-18.6-1.62c3.82,10.32-6.05,21.58-16.88,23.51c-10.84,1.93-21.68-2.52-31.79-6.88
														c-10.4,10.26-29.51,9.52-39.07-1.53c4.26,0.86,8.82,1.57,12.83-0.12c4-1.69,6.89-6.71,4.78-10.51
														c4.93,5.28,14.64,1.61,17.72-4.93c3.08-6.54,1.64-14.21,0.13-21.28c3.19,5.37,9.16,9.67,16.06,6.73
														c5.83-2.48,9-8.81,8.35-15.11c-0.89-8.57-3.15-20.44-9.02-27.16c6.16,4.5,8.98,13.23,16.36,15.21
														c7.37,1.98,16.11,0.78,21.18-4.93c5.07-5.71,4.7-18.86-2.16-22.19c16.44,1.89,22.33,10.82,34.34,10.6
														c5.86-0.11,12.34-1.26,15.92-5.9c3.58-4.63-4.76-13.42-7.81-20.33c5.49,4.03,15.12,14.21,21.92,14.35
														c6.8,0.14,14.02-3.62,16.21-10.07c3.36-9.93-6.1-14.71-13.98-25.85c13.83,5.19,18.13,12.43,29.4,10.72
														c5.79-0.88,10.96-4.61,12.82-10.16c3.11-9.25-4.42-17.32-12.1-22.19c9.45,4.96,19.82,10.09,30.54,5.95
														c5.24-2.03,9.14-6.81,9.34-12.43c0.35-9.97-10.3-12.53-13.99-19.91c9.1,4.32,20.93,8.32,28.2,1.05
														c4.74-4.74,5.17-12.14,2.06-18.08c-5.11-9.79-15.64-13.81-25.27-17.05c31.4,1.27,48.99,21.34,64.9,7.41
														c4.47-3.91,2.23-11.73-8.93-20.66C1538.5,927.84,1549.04,942.97,1561.23,955.64z"/>
												</g>
											</g>
										</g>
									</g>
								</g>
							</g>
						</g>
					</g>
				</g>
			</g>
		</g>
	</g>
	<g>
		<g>
			<g>
				<g>
					<g>
						<g>
							<g>
								<g>
									<g>
										<g>
											<g>
												<g>
													<path d="M1200.07,891.3c8.69-6.27,19.06-10.2,29.73-11.24c-14.35-2.29-29.7-4.45-42.88,1.66
														c-9.13,4.24-18.13,12.44-27.75,9.48c-3.03-4.41-2.58-10.9,1.05-14.85c3.62-3.95,10.04-4.96,14.7-2.31
														c-10.77-14.25-26.97-9.04-40.94-5.21c4.3,1.09,8.18,3.77,10.74,7.39c-3.44-1.62-7.21-2.54-11.01-2.69
														c2.2,6.49,5.11,12.75,8.65,18.62c-11.8-4.44-21.53-14.07-26.09-25.83c-1.5,10.57-2.92,21.32-1.3,31.87
														c1.62,10.55,6.72,21.04,15.73,26.77c17.68,11.25,45.01,5.38,60.01-7.51c13.12-11.27,21.5-19.57,44.2-18.04
														C1229.83,897.76,1204.45,888.14,1200.07,891.3z"/>
												</g>
											</g>
										</g>
									</g>
								</g>
							</g>
						</g>
					</g>
				</g>
			</g>
		</g>
	</g>
	<g>
		<g>
			<g>
				<g>
					<g>
						<g>
							<g>
								<g>
									<g>
										<g>
											<g>
												<g>
													<g>
														<path d="M1605.08,858.3c4.8,0.08,9.6,0.16,14.4,0.24c1.74-9.08-0.07-18.8-4.95-26.65c3.91,1.25,7.82,2.5,11.73,3.75
															c5.33-5.94,1.67-15.49-3.43-21.62c-5.1-6.13-11.8-11.97-12.45-19.92c12.62,0.96,25.69,1.87,37.57-2.49
															c11.88-4.36,22.25-15.53,21.43-28.16c16.73-9.39,33.46-21.84,39.36-40.1c4.39-13.56,1.81-29.18-6.69-40.61
															c10.94,5.39,23.63,7.16,35.63,4.97c3.51-0.64,7.43-1.99,8.78-5.3c1.16-2.82-0.01-6.04-1.49-8.71
															c-4.58-8.24-11.98-14.46-18.33-21.44c-6.35-6.97-11.96-15.6-11.53-25.02c0.43-9.42,9.5-18.69,18.58-16.14
															c-26.73-22.21-62.64-32.99-97.18-29.19c17.06-9.36,33.75-8.58,50.63-12.87c2.96-0.75,6.32-1.84,7.45-4.68
															c1.44-3.61-1.72-7.36-4.89-9.59c-18.89-13.3-44.98-9.26-66.38-0.55c16.85-15.73,36.83-23.45,55.16-35.59
															c18.33-12.14,43.84-19.36,61.51-6.29c-7.67,3.12-16.42,2.8-24.06,6c-7.64,3.19-13.98,12.7-9.36,19.57
															c1.84,2.73,4.94,4.29,7.9,5.73c10.64,5.17,22.65,10.46,33.9,6.8s12.42-17.54,6.83-27.28
															c8.4,7.73,17.84,15.91,29.25,16.32c11.41,0.41,23.18-12.07,17.54-22l20.88,12.23c9.72,9.91,7.91,28.52-3.53,36.37
															c-5.47,3.76-12.21,5.06-18.33,7.62c-6.12,2.56-12.21,7.22-13.04,13.81c-0.71,5.7,12.95,13.95,18.05,12.97
															c-23.23,11.14-30.04,2.01-38.53,5.59c-9.16,3.86-17.5,17.33-27.04,15.63c10.76,3.59,20.96,8.86,30.08,15.61
															c2.21,1.64,4.44,3.45,5.58,5.95c2.5,5.45-1.31,12.12-6.63,14.88c-5.33,2.76-11.62,2.65-17.61,2.47
															c10.49,5.71,15.06,20.24,9.71,30.93c-5.34,10.68-24,17.25-34.86,12.27c11.17,22.34-3.35,33.51,0.66,61.19
															c-5.89-6.87-17.29-2.03-23.69,4.37c-6.4,6.4-13.18,14.73-22.19,13.88c8.89,5.78,5.12,20.97-4.14,26.13
															c-9.26,5.16-20.67,3.45-31.1,1.59c3.67,7.88,7.44,16.29,6.41,24.93c-1.03,8.64-8.96,17.06-17.46,15.22
															c5.54,2.48,8.95,8.98,7.85,14.95c-1.1,5.96-6.61,10.82-12.67,11.16c2.51,7.33,5.02,14.65,7.52,21.98
															c16.3-16.87,32.59-33.74,48.89-50.61c-7.5,14.24-15.2,28.77-26.91,39.82c-11.7,11.05-28.34,18.2-44,14.5
															C1618.51,887.41,1614.5,870.9,1605.08,858.3z"/>
													</g>
												</g>
											</g>
										</g>
									</g>
								</g>
							</g>
						</g>
					</g>
				</g>
			</g>
		</g>
	</g>
	<g>
		<g>
			<g>
				<g>
					<g>
						<g>
							<g>
								<g>
									<g>
										<g>
											<g>
												<g>
													<path d="M1611.11,560.27c-11.7,1.16-28.55,13.06-31.49,24.44c11.81,6.4,24.23-1.54,39.07,4.49
														c-10.51,1.7-21.6,3.63-28.78,12.39c-3.26,3.98-4.89,9.18-3.74,14.2c2.28,9.87,12.2,12.41,20.92,14.13
														c12.91,2.55,25.83,5.1,38.74,7.65c-12.55,1.72-24.47,7.79-33.21,16.97c-1.37,1.44-2.44,3.18-2.9,5.11
														c-1.89,7.8,6.59,12.34,13.64,14.43c15.02,4.45,30.5,7.33,46.11,8.58c-17.92,3.33-31.04,7.47-48.3,13.33
														c13.78,0.74,24.43,3.21,34.07,9.49l-18.23,6.17l35.55,18.41c-6.27,0.66-18.08,2.08-24.28,0.94
														c-6.2-1.13-13.98,0.37-16.23,6.25c-2.6,6.77,11.33,13.5,17.06,17.94c-6.68-2.73-22.8,1.87-24.08,8.97
														c-1.29,7.1,5.12,14.54,12.33,14.33c-5.56,5.18-14.71-0.8-22.06-1.21c-9.18-0.5-19.29-0.72-26.47,5.03
														c-7.17,5.76-7.32,19.83,1.54,22.31c-7.13,1.35-14.45-0.25-21.71-0.25c-7.26,0.01-15.37,2.27-18.82,8.65
														c-3.45,6.38,4.1,17.18,14.38,20.34c-29.27,2.43-56.23-8.97-79.39,0.94c18.69,4.16,40.3,1.3,54.01,19.15
														c-14.26-6.13-17.51-6.16-26.24-3.82c-8.73,2.34-16.37,9.85-17.03,18.86c-0.66,9.01,11.08,20.87,20.07,19.97
														c-12.81,5.16-30.37,8.55-43.93,11.17c3.47-2.38,7.59-7.04,9.37-10.85c1.79-3.82,0.86-9.24-3-10.92
														c-2.51-1.09-5.38-0.35-8.12-0.33c-7.83,0.07-15.05-6.87-15.3-14.69c-0.11-3.64,1.08-7.19,1.34-10.83
														c0.94-13.05-14.12-30.27-26.92-27.59c15.64-12.84,29.6-5.84,43.9-10.96c14.3-5.11,35.85-5.45,49.37,1.46
														c-5.74-7.36-5.18-21.08,3.4-24.78c8.57-3.7,18.4-1.89,27.55-0.02c-5.44-10.26,7.51-21,18.98-22.9
														c11.46-1.89,25.02-1.18,32.38-10.17c3.54-4.33,6.42-11.14,11.97-10.47c-7.22-2.82-11.12-12.09-8.09-19.22
														c3.03-7.14,12.4-10.76,19.45-7.53c-6.83-10.4-30.64-10.65-43.08-11.03l27.39-10.14l-24.58-12.58
														c4.87-4.11,11.35-6.26,17.71-5.88c-15.7-4.73-30.32-12.99-42.46-24.01c-1.26-1.14-2.17-2.68-2.37-4.37
														c-1.07-9.33,16.23-5.22,21.75-12.45c-10.89-4.21-22.62-9.12-28.35-19.28c-5.74-10.17-0.5-26.62,11.18-26.86
														c-6,0.74-11.65-5.82-10.02-11.64c0.87-3.13,3.34-5.63,4.19-8.77c1.56-5.78-4.13-12.22-10.07-11.37
														c9.87-1.42,24.38-20.41,36.57-23.84C1575.3,550.87,1592.88,557.93,1611.11,560.27z"/>
												</g>
											</g>
										</g>
									</g>
								</g>
							</g>
						</g>
					</g>
				</g>
			</g>
		</g>
	</g>
	<g>
		<g>
			<g>
				<g>
					<g>
						<g>
							<g>
								<g>
									<g>
										<g>
											<g>
												<g>
													<path d="M1555.09,654.1c-6.04-2.53-13.65-0.56-17.69,4.58c-4.05,5.14-4.17,13.01-0.28,18.28
														c8.03,10.89,25.07,6.62,37.97,10.69c-4.32,2.24-8.33,5.07-11.89,8.39c6.45,1.26,12.64,3.84,18.07,7.54
														c-6.46,0.3-12.69,3.73-16.41,9.01c13.14,2.07,30.03,8.73,28.38,21.93c-13.05-11.58-33.02-11.42-49.61-6.04
														c-16.6,5.38-31.46,15.12-47.84,21.12c-11.83,4.34-25.59,6.51-36.62,0.44c-11.03-6.08-16.08-23.12-6.8-31.63
														c-7.25-5.01-14.83-10.17-24.08-10.02c-4.53,0.07-8.88,2.04-12,5.32c-7.71,8.1,7.69,6.16,13.79,21.42
														c-10.38-5.08-30.92-8.15-42.07-11.21c-11.14-3.06-22.63-11.58-22.26-23.13c0.43-13.36,15.52-20.77,22.54-32.16
														l1.27,7.69c9.59,3.89,20.25-3.26,26.3-11.66c6.05-8.4,9.97-18.58,17.97-25.16c17.04-14.03,42.4-5.33,64.34-7.79
														c-7.03,3.04-13.31,7.78-18.16,13.7c5.96,4.6,13.07,7.7,20.5,8.95c-7.19,3.31-14.74,6.91-18.48,14.2
														c-1.77,3.45-2.2,7.55-0.87,11.2c2.27,6.21,7.81,7.34,13,8.05c11.02,1.52,22.19,1.93,33.29,1.22
														c-9.73,2.52-20.83-4.65-22.54-14.55c-1.71-9.9,6.34-20.38,16.34-21.28c-7.72,0.48-13.53-8.04-13.2-15.76
														c0.32-7.41,4.69-14.57,8.67-20.56c-48.92-2.48-1.23-43.05,14.11-20.93c7.85,11.32-10.43,19.43-8.75,32.77
														C1524.62,649.04,1546.97,640.1,1555.09,654.1z"/>
												</g>
											</g>
										</g>
									</g>
								</g>
							</g>
						</g>
					</g>
				</g>
			</g>
		</g>
	</g>
	<g>
		<g>
			<g>
				<g>
					<g>
						<g>
							<g>
								<g>
									<g>
										<g>
											<g>
												<g>
													<path d="M1328.46,788.17c-10.05,1.06-20.68-6.86-21.04-16.97c-0.24-6.72,4.95-12.87,11.12-14.94
														c-5.36-0.57-10.66-1.74-15.76-3.47c1.29-8.53,10.09-14.29,18.68-15.04c8.59-0.75,17,2.32,25.08,5.34
														c0.53-8.47-9.35-13.98-17.83-14.04c-8.48-0.05-16.89,3.07-25.3,1.96c-1.81-6.92,4.54-14.21,11.41-14.62
														c-2.67-1.53-4.27-5.66-2.91-8.76c1.89-4.29,6.77-6.34,11.31-7.53c4.54-1.19,9.46-2.07,12.85-5.31l6.25,18.02
														l-7.31,7.89c1.91-1.43,10.75-3.53,11.15-4.81c16.78,5.84,30.71,19.67,36.31,36.57c-13.36-2.33-27.24-1.64-40.31,2
														c8.57,1.71,16.6,6.02,22.78,12.2c-13.62-4.99-29.6-2.95-41.53,5.3c14.61,9.62,30.68,12.13,45.29,21.75
														c-10.61-1.12-17.24-1.06-24.01,0.56c-8.46,2.02-11.56,4.77-12.46,11.67c20.91-1.37,42.62,2.29,58.66,18.3
														c-10.47-3.29-22.52-0.98-31.03,5.94c-3.38,2.75-6.41,7.13-4.88,11.21c0.79,2.11,2.65,3.61,4.42,5
														c9.63,7.56,19.25,15.12,28.88,22.69c4.37-6.53,10.84-11.64,18.21-14.38c-3.39-3.46-6.77-6.92-10.16-10.37
														c12.03,3.66,23.47,9.26,33.74,16.52c-12.69,0.06-25.25,5.75-33.67,15.25c-6.57,7.41-11.28,17.41-20.54,20.9
														c-3.01-14.69-14.27-27.39-28.49-32.14c-6.66-2.23-14.32-3.08-19.1-8.23c-6.69-7.21-3.83-19.65,3.39-26.34
														c7.22-6.69,17.31-9.08,26.93-11.14c-12.41,0.14-24.82,0.27-37.23,0.41c-3.15,0.03-6.44,0.04-9.27-1.34
														c-6.81-3.31-7.64-13.52-3.23-19.68C1313.29,792.38,1321.03,789.59,1328.46,788.17z"/>
												</g>
											</g>
										</g>
									</g>
								</g>
							</g>
						</g>
					</g>
				</g>
			</g>
		</g>
	</g>
	<g>
		<g>
			<g>
				<g>
					<g>
						<g>
							<g>
								<g>
									<g>
										<g>
											<g>
												<g>
													<path d="M1281.94,778.93c2.11,8.48,12.08,7.96,16.11,10.13c-9.75,3.44-16.08,14.59-14.05,24.72
														c2.03,10.14,12.16,17.99,22.48,17.42c-8.8,4.7-11.86,17.62-6.09,25.76c2.31,3.27,5.66,5.64,8.35,8.61
														c11.66,12.86,8.6,32.82,4.82,49.76c-12.66-0.04-26.17,4.07-38.83,4.03c7.87-10.95,15.03-29.81,8.61-41.66
														c-3.97-7.32-11.9-11.62-16.76-18.38c-4.85-6.76-4.12-19.06,4.08-20.45c-9.29-4.61-13.48-17.33-8.74-26.56
														c2.27-4.43,6.15-7.85,8.56-12.21c2.41-4.36,2.85-10.62-1.11-13.63c-1.9-1.44-4.39-1.81-6.49-2.94
														c-6.97-3.74-5.58-16.29,2.04-18.41c-10.48-2.94-22.66,2.16-27.92,11.69c-13.28-3.48-16.92-22.25-10.04-34.13
														c9.15-15.79,44.3-37.83,54.45-11.76c2.89,7.43-2.97,13.47-1.64,19.11c1.54,6.53,7.77,10.21,7.77,10.21
														s7.47,10.56-4.35,17.34C1282.52,777.99,1281.75,778.17,1281.94,778.93z"/>
												</g>
											</g>
										</g>
									</g>
								</g>
							</g>
						</g>
					</g>
				</g>
			</g>
		</g>
	</g>
	<g>
		<g>
			<g>
				<g>
					<g>
						<g>
							<g>
								<g>
									<g>
										<g>
											<g>
												<g>
													<path d="M1206.02,815.47c5.57,1.8,10.58-0.6,16.21-2.21c9.75-2.8,18.24-5.58,30.27-7.6
														c-14.87,6.12-25.69,9.48-36.62,13.55c-1.68,0.63-3.03,2.1-3.22,3.88c-0.33,3,2.39,4.06,4.71,4.69
														c11.44,3.12,22.36,3.34,35.07,5.44c-10.19,0.51-20.33,2.11-30.19,4.76c-2,0.54-3.7,2.1-4.08,4.14
														c-0.66,3.49,2.65,5.18,5.48,6.19c9.75,3.5,19.83,6.09,30.06,7.72l-39.29,5.31c10.46,6.34,22.64,9.8,34.87,9.91
														c-19.49,3.64-40.12,0.86-57.96-7.81c1.82,3.38,4.47,6.32,7.65,8.47c-7.18-1.46-20.08-8.19-27-10.62
														c7.59-5.17,21.59-2.98,29.71-8.86l-22.27-4.54c7.81-4.38,18.98-6.91,27.42-9.87l-30.77-1.67
														c7.82-5.58,15.27-10.04,21.86-14.97c-9.53,2.02-17.77,4.17-28.19,5.66c7.82-4.08,14.19-11.78,20.37-18.08
														c-18.66,10.53-37.89,20.02-57.6,28.44c13.3-11.12,25.26-19.68,41.13-35.65c-9.43,3.5-15.82,14.13-26.99,14.51
														c16.38-13.03,25.53-41.19,43.46-55.5c-6.76,5.39-12.03,22.43-14.03,30.42c11.31-8.11,14.73-5.94,26.44-2.33
														c15.03,4.64,24.55,4.7,40.18,0.27C1231.38,795.76,1215.74,803.98,1206.02,815.47z"/>
												</g>
											</g>
										</g>
									</g>
								</g>
							</g>
						</g>
					</g>
				</g>
			</g>
		</g>
	</g>
	<g>
		<g>
			<g>
				<g>
					<g>
						<g>
							<g>
								<g>
									<g>
										<g>
											<g>
												<g>
													<path d="M1255.08,640.27c-2.65-16.27-17.67-28.3-33.58-19.58c-7.95,4.35-12.19,12.31-17.04,19.62
														c-6.7,10.11-13.41,19.23-23.81,25.87c-21.93,13.98-48.71,9.34-72.98,15.18c-19.42,4.68-42.8,20.1-44.63,41.89
														c-0.31,3.71,2.02,11.8,7.05,7.86c6.73-5.27,10.33-13.57,17.03-19.12c8.42-6.98,18.57-10.58,29.24-12.4
														c19.06-3.26,38.94-1.75,57.21-9.08c15.39-6.17,28.66-18.08,36.05-32.95c3.97-7.99,6.54-16.93,13.17-23.31
														c8.3-7.99,27.01-6.24,29.55,7.27C1252.89,644.36,1255.45,642.54,1255.08,640.27L1255.08,640.27z"/>
												</g>
											</g>
										</g>
									</g>
								</g>
							</g>
						</g>
					</g>
				</g>
			</g>
		</g>
	</g>
	<g>
		<g>
			<g>
				<g>
					<g>
						<g>
							<g>
								<g>
									<g>
										<g>
											<g>
												<g>
													<path d="M998.06,765.23v-6.7c11.32,0,20.33-3.78,29.05-7.43c4.4-1.84,8.55-3.58,12.8-4.74
														c13.94-3.8,30.39,11.3,31.08,11.95l-4.56,4.91c-3.98-3.69-16.2-12.74-24.77-10.39c-3.83,1.04-7.79,2.7-11.98,4.46
														C1020.8,761.01,1010.73,765.23,998.06,765.23z"/>
												</g>
											</g>
										</g>
									</g>
								</g>
							</g>
						</g>
					</g>
				</g>
			</g>
		</g>
	</g>
	<g>
		<g>
			<g>
				<g>
					<g>
						<g>
							<g>
								<g>
									<g>
										<g>
											<g>
												<g>
													<path d="M1044.14,821.08c-24.23,0-40.38-10.34-46.08-14.67c-5.71,4.33-21.86,14.67-46.09,14.67
														c-30.28,0-50.88-24.75-51.74-25.8l5.18-4.25c0.19,0.23,19.5,23.35,46.56,23.35c27.42,0,43.66-14.61,43.82-14.76
														l2.26-2.08l2.26,2.08c0.16,0.14,16.54,14.76,43.82,14.76c27.32,0,49.77-20.84,49.99-21.05l4.6,4.87
														C1097.74,799.13,1074.17,821.08,1044.14,821.08z"/>
												</g>
											</g>
										</g>
									</g>
								</g>
							</g>
						</g>
					</g>
				</g>
			</g>
		</g>
	</g>
	<g>
		<g>
			<g>
				<g>
					<g>
						<g>
							<g>
								<g>
									<g>
										<g>
											<g>
												<g>
													<path d="M993.93,969.7c-1.56,0-2.79-0.04-3.54-0.07l0.29-6.7c9.76,0.42,24.13-1.31,25.76-5.65
														c3.25-8.66,12.08-43.96,12.17-44.31l0.31-1.26L1030,911c0.16-0.1,15.99-10.88,23.31-29.7
														c6-15.42-6.79-50.12-12.22-62.19l6.11-2.75c0.84,1.88,20.58,46.2,12.35,67.37c-7.03,18.08-20.76,29.14-24.75,32.08
														c-1.62,6.42-9.03,35.66-12.1,43.84C1019.35,968.61,1002.13,969.7,993.93,969.7z"/>
												</g>
											</g>
										</g>
									</g>
								</g>
							</g>
						</g>
					</g>
				</g>
			</g>
		</g>
	</g>
	<g>
		<g>
			<g>
				<g>
					<g>
						<g>
							<g>
								<g>
									<g>
										<g>
											<g>
												<g>
													<path d="M1110.62,826.14c-5.34,22.75-5.63,45.31-1.69,68.37c4.05,23.76,17.57,51.39,2.1,73.6
														c1.74-0.39,3.47-0.77,5.21-1.16c-27.12-22.97-47.28-47.24-53.01-83.27c-3.71-23.31-4.48-49.44-21.09-67.86
														c-1.72-1.91-3.18,2.75-1.98,4.16c20.27,23.78,12.85,57.22,20.44,85.38c8.3,30.8,27.99,52.64,51.56,73.05
														c1.87,1.62,3.97,0.58,5.21-1.16c13.74-19.3,10.2-42.68,4.81-64.27c-7.1-28.44-9.98-57.15-9.29-86.44
														C1112.92,824.75,1111.06,824.25,1110.62,826.14L1110.62,826.14z"/>
												</g>
											</g>
										</g>
									</g>
								</g>
							</g>
						</g>
					</g>
				</g>
			</g>
		</g>
	</g>
	<g>
		<g>
			<g>
				<g>
					<g>
						<g>
							<g>
								<g>
									<g>
										<g>
											<g>
												<g>
													<path d="M1089.32,950.42c-5.04,2.43-13.59,6.52-14.36,12.83c-1.13,9.28,15.27,13.81,5.46,23.09
														c-1.99,1.89-2.34,6.41-0.51,8.54c12.08,14.07,21.87,28.12,22.81,47.11c0.45,9.03,1.1,27.63,11.36,31.11
														c2.59,0.88,4.28-2,4.59-4.17c1.01-7.23-1.61-12.46-3.62-19.24c-2.13-7.21-2.9-14.58-5.46-21.71
														c-5.51-15.37-14.22-28.59-24.84-40.91c-0.17,2.85-0.34,5.69-0.51,8.54c6.11-5.81,8.09-14.27,5.4-22.31
														c-1.37-4.11-3.62-5.67-6.24-8.76c-2.47-2.91-2.54,1.82-0.41-1.75c1.69-2.83,5.79-5.69,7.95-8.41
														C1091.77,953.36,1091.25,949.5,1089.32,950.42L1089.32,950.42z"/>
												</g>
											</g>
										</g>
									</g>
								</g>
							</g>
						</g>
					</g>
				</g>
			</g>
		</g>
	</g>
	<g>
		<g>
			<g>
				<g>
					<g>
						<g>
							<g>
								<g>
									<g>
										<g>
											<g>
												<g>
													<path d="M1022.92,843.42c13.45,0,17.87,22.34,8.94,26.81c-8.94,4.47-24.57-7.82-24.57-13.4
														C1007.28,851.24,1013.99,843.42,1022.92,843.42z"/>
												</g>
											</g>
										</g>
									</g>
								</g>
							</g>
						</g>
					</g>
				</g>
			</g>
		</g>
	</g>
	<g>
		<g>
			<g>
				<g>
					<g>
						<g>
							<g>
								<g>
									<g>
										<g>
											<g>
												<g>
													<path d="M1047.49,872.46c0,0-24.57,22.34-42.44,4.47l-3.35,33.51c0,0,11.17-12.29,18.99-1.12
														C1020.69,909.32,1047.49,898.15,1047.49,872.46z"/>
												</g>
											</g>
										</g>
									</g>
								</g>
							</g>
						</g>
					</g>
				</g>
			</g>
		</g>
	</g>
	<g>
		<g>
			<g>
				<g>
					<g>
						<g>
							<g>
								<g>
									<g>
										<g>
											<g>
												<g>
													<path d="M1097.75,819.65c-2.83,0.45-5.54,1.62-7.81,3.37c4.2,2.33,7.72,5.88,10.02,10.1
														c-2.88,0.12-5.75,0.23-8.62,0.35c5.13,3.83,8.89,9.45,10.5,15.64c-3.57-2.5-8.59-2.75-12.39-0.62
														c6.06,4.09,10.73,10.21,13.1,17.13c-2.92-1.34-6.13-2.06-9.34-2.1c5.52,6.15,9.49,13.68,11.46,21.71
														c-2.2-0.96-4.4-1.91-6.59-2.87c9.04,15.89,7.55,37.16-3.63,51.63c0.96-18.1-3.82-36.46-13.48-51.8
														c5.21-1.96,6.37-9.15,4.4-14.36c-1.97-5.21-6.01-9.36-8.51-14.34c-0.58-1.16-1.09-2.49-0.75-3.75
														c0.36-1.32,1.54-2.2,2.5-3.17c4.89-4.95,4.38-13.51,0.44-19.25c-3.86-5.61-10.24-8.96-16.38-11.45
														c9.98-2.09,22.22-8.82,32.28-9.69c-2.67,1.66-7.07,5.21-10.12,7.01C1089.5,814.27,1094.17,816.36,1097.75,819.65z"/>
												</g>
											</g>
										</g>
									</g>
								</g>
							</g>
						</g>
					</g>
				</g>
			</g>
		</g>
	</g>
	<g>
		<g>
			<g>
				<g>
					<g>
						<g>
							<g>
								<g>
									<g>
										<g>
											<g>
												<g>
													<path d="M1124.25,959.62c-1.23-11.69-5.78-23.01-12.97-32.31c-0.23,10.53-1.76,21.02-4.55,31.17
														c-0.4,1.44-0.82,2.98-0.39,4.41c0.24,0.82,0.75,1.54,1.25,2.24c2.05,2.89,4.09,5.77,6.14,8.65
														c4.33-5.71,7.08-12.61,7.88-19.74L1124.25,959.62z"/>
												</g>
											</g>
										</g>
									</g>
								</g>
							</g>
						</g>
					</g>
				</g>
			</g>
		</g>
	</g>
	<g>
		<g>
			<g>
				<g>
					<g>
						<g>
							<g>
								<g>
									<g>
										<g>
											<g>
												<g>
													<path d="M1056.74,911.05c1.53,0.24,3.12,0.13,4.58,0.63c3.22,1.11,4.69,4.72,5.96,7.87
														c3.48,8.63,8.18,16.76,13.93,24.07c-7.18-6.54-14.36-13.07-21.55-19.61c1.85,9.05,4.53,17.93,7.99,26.49
														c-5.99-6.2-11.47-12.89-16.37-19.98c-1.13,8.47-1.67,17.02-1.62,25.56c-2.69-6.99-5.37-13.98-8.06-20.97
														c-1.99,7.01-4.09,14.23-8.65,19.92c-4.56,5.69-12.28,9.5-19.23,7.32c5.38-7.05,9.39-15.14,11.73-23.69
														c2.16-7.89,2.92-16.18,5.94-23.78c2.74-6.9,8.75-15.23,16.58-15.01C1048.42,904.83,1051.4,910.21,1056.74,911.05z"/>
												</g>
											</g>
										</g>
									</g>
								</g>
							</g>
						</g>
					</g>
				</g>
			</g>
		</g>
	</g>
	<g>
		<g>
			<g>
				<g>
					<g>
						<g>
							<g>
								<g>
									<g>
										<g>
											<g>
												<g>
													<path d="M998.06,972.22c-1.41,5.97-2.7,9.26-5.88,13.79c-0.85,1.21-4.61,4.89-5.96,4.09
														c-2.53-1.49,0.83-10.28,1.86-13.03c-15.13,21.22-38.01-3.27-52.92-8.5c-18.24-6.4-35.74,8.55-21.27,26.68
														c2.47-2.04,6.85-3.24,9.24-5.4c0.96,3.06,2.34,15.91-1.32,17.87c4.76-2.55,9.31-5.51,13.58-8.82
														c-0.07,4.81-1.49,9.59-4.05,13.67c6.28-3.58,12.56-7.15,18.84-10.73c0.8,6.06,0.63,12.25-0.52,18.26
														c5.77-2.92,10.49-7.87,13.13-13.78c0.38,4.52,0.46,9.07,0.26,13.6c7.08-2.34,13.54-6.57,18.51-12.13
														c1.33,4.23,1.56,8.8,0.65,13.14c5.53-3.83,9.98-9.18,12.77-15.29c0.81,2.38,1.8,4.69,2.94,6.89
														c0.02,0.11,0.05,0.22,0.07,0.34c0.02-0.03,0.03-0.06,0.05-0.09c0.02,0.03,0.03,0.06,0.05,0.09
														c0.02-0.11,0.05-0.22,0.07-0.34c1.14-2.2,2.13-4.51,2.94-6.89c2.79,6.12,7.25,11.46,12.77,15.29
														c-0.9-4.34-0.68-8.91,0.65-13.14c4.97,5.56,11.43,9.79,18.51,12.13c-0.21-4.53-0.12-9.08,0.26-13.6
														c2.64,5.9,7.36,10.85,13.13,13.78c-1.15-6.01-1.32-12.2-0.52-18.26c6.28,3.58,12.56,7.15,18.84,10.73
														c-2.56-4.07-3.98-8.86-4.05-13.67c4.27,3.31,8.82,6.26,13.58,8.82c-3.66-1.96-2.27-14.81-1.32-17.87
														c2.4,2.16,5.34,3.04,7.82,5.09c14.47-18.13-1.6-32.76-19.84-26.37c-14.91,5.23-37.25,29.72-52.39,8.5
														c1.03,2.75,3.48,14.06,0.37,13.78c-1.33-0.12-4.7-4.03-5.59-5.21C1000.16,981.4,998.83,976.46,998.06,972.22
														L998.06,972.22z"/>
												</g>
											</g>
										</g>
									</g>
								</g>
							</g>
						</g>
					</g>
				</g>
			</g>
		</g>
	</g>
	<g>
		<g>
			<g>
				<g>
					<g>
						<g>
							<g>
								<g>
									<g>
										<g>
											<g>
												<g>
													<path d="M1098.51,1032.36c-8.59-3.83-19.03-3.18-27.08,1.68c-2.85-4.87-6.46-9.29-10.65-13.07
														c0.6,21.12-12.86,13.49-24.24,4.96c8.58,22.36-30.22-5.57-33.41-8.3c-0.25,3.71-0.42,7.55-0.51,11.31
														c-1.9-4.11-1.64-8.12-4.57-11.61c-2.93,3.48-2.67,7.5-4.57,11.61c-0.08-3.76-0.26-7.59-0.51-11.31
														c-3.19,2.73-41.99,30.66-33.41,8.3c-11.38,8.53-24.84,16.16-24.24-4.96c-4.19,3.78-7.79,8.2-10.64,13.07
														c-8.05-4.86-18.49-5.51-27.09-1.68c9.72,6.97,19,14.56,27.76,22.71c-5.72-0.98-11.43-1.95-17.15-2.93
														c8.05,4.25,9.04,16.85,17.42,20.4c7.29,3.09,15.02-2.52,22.46-5.24c6.58-2.4,13.98-2.5,20.62-0.26
														c-5.99-2.39-11.2-6.71-14.65-12.16c7.13,1.37,14.26,2.75,21.39,4.12c-2.37-3.51-4.3-7.31-5.75-11.28
														c7.69,2.37,14.89,6.35,20.98,11.62c1.37-5.01-2.1-10.42-0.73-15.42c2.11,2.24,7.14,13.94,8.38,16.75
														c1.23-2.82,10.18-16.19,12.29-18.43c1.37,5.01-6.54,12.09-5.18,17.1c6.09-5.27,13.28-9.25,20.98-11.62
														c-1.45,3.98-3.38,7.78-5.75,11.28c7.13-1.37,14.26-2.75,21.39-4.12c-3.45,5.45-8.66,9.77-14.65,12.16
														c6.64-2.24,14.04-2.14,20.62,0.26c7.44,2.72,15.16,8.33,22.45,5.24c8.38-3.55,9.37-16.16,17.42-20.4
														c-5.72,0.98-11.43,1.95-17.15,2.93C1079.51,1046.92,1088.79,1039.33,1098.51,1032.36z"/>
												</g>
											</g>
										</g>
									</g>
								</g>
							</g>
						</g>
					</g>
				</g>
			</g>
		</g>
	</g>
	<g>
		<g>
			<g>
				<g>
					<g>
						<g>
							<g>
								<g>
									<g>
										<g>
											<g>
												<g>
													<path d="M1096.08,1081.44c-1.14,10.5,3.25,10.16,4.05,15.42c0.28,1.82,0.46,3.81-1.1,5.24
														c-1.64,1.5-4.15,1.42-6.02,0.23c-2.85-1.81-3.86-5.19-4.74-8.35l-1.24,11.95c-5.99-5.31-12.75-13.43-14.74-18.78
														c-1.36,8.7,1.21,13.12-2.4,18.43c-1.97-3.68-6.57-10.74-9.58-13.64c0.15,4.81,0.81,13.35-1.84,17.36
														c-0.68,1.03-1.54,2.07-2.74,2.36c-1.6,0.38-3.16-0.7-4.39-1.79c-5.19-4.64-7.22-11.22-10.97-17.45
														c-1.28,6.79-0.17,12.08-4.3,16.24c-4.24-4.05-7.42-9.21-9.12-14.83c-2.36,4.01,1.35,10.33-2.09,13.35
														c-1.71,1.5-4.28,1.31-6.15,0.03c-4.01-2.74-4.6-8.15-8.12-11.15c1.32,5.7-0.82,12.06-5.31,15.82
														c-4.47-4.89-7.93-10.69-10.11-16.95c1.16,12.68,0.72,25.51-1.32,38.08l6.42-10.45c2.83,6.6,4.53,13.68,5,20.85
														c2.99-5.79,4.91-12.13,5.63-18.61c4.03,4.68,6.65,10.56,7.44,16.69l7.67-11.16c0.88,3.58,4.08,10.11,6.39,12.99
														c2.47-3.21,3.39-9.56,5.86-12.77c4.4,4.38,7.01,10.51,7.1,16.72c1.28-6.25,5.42-12.32,11.55-14.08
														c6.13-1.77,7.88,5.11,11.79,10.7c2.79-5.58,5.05-12.35,7.9-16.85c3.73,5.23,6.51,11.13,8.19,17.34
														c1.12-3.62,2.23-7.24,3.35-10.85c0.59-1.91,1.29-3.99,3.43-4.67c2.21-0.71,4.54,0.57,5.69,2.59
														c1.74,3.08,0.93,6.67,0.1,9.98c4.08-5.52,6.77-18.72,8.03-25.47c1.33,5.45,2.8,17.64,4.13,23.09
														c6.54-10.26,11.95-21.57,13.2-33.68c0.77-7.38,0.26-17.44-4.41-23.17C1112.18,1092.94,1107.39,1095.6,1096.08,1081.44z
														"/>
												</g>
											</g>
										</g>
									</g>
								</g>
							</g>
						</g>
					</g>
				</g>
			</g>
		</g>
	</g>
	<g>
		<g>
			<g>
				<g>
					<g>
						<g>
							<g>
								<g>
									<g>
										<g>
											<g>
												<g>
													<path d="M1079.81,1153.12c0.47,6.76-1.8,13.67-6.2,18.83c-1.15-6.72-4.89-12.96-10.28-17.14
														c0.8,7.35-2.2,15.02-7.78,19.87c-0.4-6.88-3.63-13.55-8.79-18.12c-0.41,8.7-4.4,17.17-10.84,23.03
														c-1.96-5.38-5.72-10.08-10.54-13.17c-0.39,3.83-2.39,7.48-5.42,9.87c-2.66-3.33-5.32-6.66-7.99-9.99
														c-0.28,4.93-2.97,9.66-7.07,12.42c-3.62-5.19-4.56-10.81-6.85-16.71c3.09,16.76,0.94,33.89,0,50.9
														c1.49-4.76,5.5-9.1,9.27-12.38c4.21,4.2,6.76,10.03,6.97,15.97c2.29-2.57,3.87-5.76,4.53-9.14
														c2.71,4.66,5.43,9.31,8.14,13.97c0.96-5.87,1.92-11.74,2.88-17.61c3.05,7.09,5.6,14.4,7.62,21.85
														c1.21-6.85,2.43-13.71,3.64-20.56c4.8,6.48,8.04,14.11,9.36,22.06c2.53-8.39,5.8-16.56,9.75-24.38
														c3.55,5.79,6.3,12.06,8.15,18.59c1.64-6.52,3.29-13.05,4.93-19.57c3.86,4.53,7,9.67,9.28,15.17
														c2.63-6.1,4.35-12.59,5.08-19.2c2.54,4.91,4.16,10.3,4.75,15.8c3.39-6.28,5.66-13.17,6.66-20.24
														c1.44,5.51,2.87,11.02,4.31,16.52c1.72-6.68,3.44-13.36,5.15-20.04c0.81,3.09,1.63,6.17,2.44,9.26
														c-2.06-7.81,5.57-31.48-1.81-36.7c-5.26-3.72-15.74,6.57-16.11-6.38c-1.34,4.34-2.86,8.58-5.45,12.25
														C1083.74,1164.09,1081.27,1158.6,1079.81,1153.12z"/>
												</g>
											</g>
										</g>
									</g>
								</g>
							</g>
						</g>
					</g>
				</g>
			</g>
		</g>
	</g>
	<g>
		<g>
			<g>
				<g>
					<g>
						<g>
							<g>
								<g>
									<g>
										<g>
											<g>
												<g>
													<path d="M1089.65,1247.79c-0.78-5.31-2.5-10.49-5.04-15.22c-0.26,4.45-2.48,8.75-5.96,11.55
														c-0.23-5.31-2.4-10.52-6.02-14.42c-1.19,8.6-4.95,16.82-10.68,23.34c1.15-7.56-0.24-15.49-3.87-22.22
														c-0.96,5.28-3.98,10.16-8.27,13.38c2.08-5.78,1.17-12.55-2.37-17.57c0.14,12.3-4.5,24.59-12.72,33.74
														c-0.44-5.17,2.13-9.84-1.32-15.52c-0.95,6.42-3.72,12.56-7.9,17.54c-0.48-4.04-2.07-7.95-4.56-11.18
														c-0.87,6.48-3.7,6.88-7.54,12.16c-3.23-4.19-5.78-2.79-8.28-7.45c-0.12,11.1-1.06,22.2-2.79,33.17
														c2.72-3.33,5.44-6.65,8.16-9.98c1.97,3.84,3.94,7.68,5.91,11.51c1.94-2.76,3.14-6.03,3.44-9.39
														c4.66,4.78,7.77,11.05,8.73,17.65c2.33-5.01,3.41-10.58,3.13-16.1c3.11,4.72,6.21,9.44,9.31,14.16
														c1.64-3.2,2.34-6.87,1.98-10.45c5.56,3.86,10.24,9.01,13.55,14.92c3.06-5.14,4.97-10.96,5.55-16.91
														c3.18,3.82,5.87,8.05,7.98,12.56c2.17-3.59,3.66-7.6,4.38-11.73c3.73,3.88,6.8,8.4,9.03,13.3
														c0.96-7.21,1.92-14.42,2.89-21.63c3.65,2.46,6.75,5.73,9.02,9.5c0.95-4.38,1.54-8.83,1.76-13.3
														c5.67,5.86,8.39,14.43,7.15,22.49c2.01-12.99,10.69-19.06,5.85-34.32c-3.33-10.52-9.04-21.3-12.94-31.7
														C1095.54,1236.06,1093.29,1242.24,1089.65,1247.79z"/>
												</g>
											</g>
										</g>
									</g>
								</g>
							</g>
						</g>
					</g>
				</g>
			</g>
		</g>
	</g>
	<g>
		<g>
			<g>
				<g>
					<g>
						<g>
							<g>
								<g>
									<g>
										<g>
											<g>
												<g>
													<path d="M1070.98,1316.65c1.27-5.25-0.88-11.16-5.22-14.38c-0.21,7.45-4.15,14.7-10.29,18.92
														c-0.05-4.23-2.21-8.39-5.63-10.88c0.38,4.21-1.76,8.54-5.33,10.79c-0.57-7.28-5.33-14.09-11.97-17.13
														c3.3,7.99,1.34,17.87-4.76,24c-0.46-5.27-2.52-10.39-5.83-14.51c0.16,5.15-2.01,10.34-5.79,13.84
														c-2.99-5.27-5.98-10.55-8.97-15.82c-2.39,14.65-3.52,29.51-3.38,44.36c0.88-3.07,2.8-5.83,5.37-7.73
														c1.48,3.71,2.96,7.42,4.45,11.14c2.49-2.2,4.1-5.37,4.42-8.68c3.43,4.45,5.6,9.86,6.19,15.45
														c3.19-3.91,4.83-9.05,4.49-14.08c4.98,5.89,7.81,13.57,7.85,21.28c4.42-5,7.79-10.94,9.82-17.3
														c2.84,2.21,5.06,5.21,6.36,8.56c1.46-2.42,2.92-4.83,4.38-7.25c1.56,3.38,3.12,6.77,4.68,10.15
														c4.33-5.52,7.7-11.65,11.42-17.47c1.49,2.65,0.08,8.02,1.58,10.66c1.26-3.82,7.32-10.66,8.73-14.45
														c6.3,12.38,8.3-5.16,8.75-10.28c0.67-7.5,1.94-19.08-2.63-25.25c-1.37,2.06-4.77,4.54-5.73,6.85
														c-0.49-4.87-2.7-9.62-7.04-12.04C1076.61,1310.62,1071.89,1312.86,1070.98,1316.65z"/>
												</g>
											</g>
										</g>
									</g>
								</g>
							</g>
						</g>
					</g>
				</g>
			</g>
		</g>
	</g>
	<g>
		<g>
			<g>
				<g>
					<g>
						<g>
							<g>
								<g>
									<g>
										<g>
											<g>
												<g>
													<path d="M1071.48,1362.8c-3.35,5.59-1.17,14.17-3.7,17.9c-1.54-1.77-3.07-3.53-4.61-5.3
														c-1.31,3.76-4.38,6.86-8.12,8.22c0.73-5.51-0.86-11.3-4.3-15.66c-1.91,5.4-4.86,10.42-8.66,14.71
														c-0.06-1.56-0.9-3.08-2.2-3.95c-1.14,2.9-3.1,5.47-5.59,7.35c-0.98-3.65-3.61-6.82-7.02-8.45
														c0.29,3.94-1.79,7.96-5.16,10.01c-1.81-5.92-4.91-11.45-9-16.09c0.23,6.27-1.43,12.6-4.72,17.94
														c-1.1-3.38-3.01-6.49-5.54-8.99c0,10.1,0,20.21,0,30.32c10.85-1.91,22.61,4.4,27.03,14.49
														c0.53-5.82-0.7-11.79-3.48-16.93c6.69,1.74,13.09,4.63,18.82,8.5c-0.2-3.15-0.41-6.31-0.61-9.46
														c6.96,1,13.8,2.86,20.31,5.51c6.09-6.25,12.36-15.78,13.32-24.69C1078.95,1381.74,1070.54,1367.52,1071.48,1362.8z"/>
												</g>
											</g>
										</g>
									</g>
								</g>
							</g>
						</g>
					</g>
				</g>
			</g>
		</g>
	</g>
	<g>
		<g>
			<g>
				<g>
					<g>
						<g>
							<g>
								<g>
									<g>
										<g>
											<g>
												<g>
													<path d="M1033.77,1444.45c-1.47-6.92-6.49-13-13-15.76c1.94,4.02,2.68,8.6,2.12,13.03
														c-4.79-4.83-10.51-8.74-16.76-11.44c4,6.03,4.07,14.43,0.18,20.53c-2.58-4.42-5.76-8.48-9.44-12.04
														c-1.42,3.3-3.53,6.31-6.16,8.77c-1.83-5.81-3-11.83-3.48-17.9c-3.9,5.36-6.71,11.52-8.19,17.98
														c-4.98-4.75-8.97-10.55-11.62-16.9c-0.99,2.86-1.98,5.71-2.97,8.57c-4.15-10.52-2.75-18.49-6.89-29
														c-0.33,6.54-6.19,10.54-9.29,11.3c-2.62-4.76-5.25-9.52-7.87-14.28c-2.39,10.8-2.72,15.51,1.47,22.14
														c4.19,6.63,10.4,11.71,15.38,17.76c6.62,8.05,11.05,17.8,18.16,25.42c5.79,6.2,13.12,10.72,20.34,15.17
														c1.03,0.64,2.15,1.3,3.36,1.25c0.95-0.04,1.82-0.5,2.65-0.97c15.71-8.84,56.45-42.96,44.59-66.05
														C1040.79,1426.54,1037.85,1438.41,1033.77,1444.45z"/>
												</g>
											</g>
										</g>
									</g>
								</g>
							</g>
						</g>
					</g>
				</g>
			</g>
		</g>
	</g>
	<g>
		<g>
			<g>
				<g>
					<g>
						<g>
							<g>
								<g>
									<g>
										<g>
											<g>
												<g>
													<polygon points="974.18,947.28 982.41,952.88 980.73,945.62 988.55,951.76 989.39,939.76 995.81,949.53 997.49,939.76 
														1001.4,949.53 1006.7,941.43 1008.1,952.88 1015.36,944.5 1013.4,953.44 1022.62,948.97 1023.73,938.36 
														1020.66,927.75 1013.12,938.92 1010.89,922.72 1005.03,931.38 1003.07,914.35 998.6,928.03 993.58,914.63 
														991.06,930.26 984.36,921.88 982.97,937.24 975.71,928.59 973.75,941.71 													"/>
												</g>
											</g>
										</g>
									</g>
								</g>
							</g>
						</g>
					</g>
				</g>
			</g>
		</g>
	</g>
	<g>
		<g>
			<g>
				<g>
					<g>
						<g>
							<g>
								<g>
									<g>
										<g>
											<g>
												<g>
													<path d="M981.36,1081.57c-2.55-4.52-4.54-9.35-5.91-14.36c4.1,3.89,8.49,7.47,13.11,10.72
														c1.18-4.48,2.76-8.85,4.7-13.06c1.49,4.08,2.97,8.17,4.46,12.25c4.84-3.79,9.68-7.59,14.52-11.38
														c-1.24,5.83-3.67,11.39-7.11,16.26c7.23-3.18,14.74-5.73,22.41-7.61c-4.62,4.97-9.23,9.95-13.85,14.92
														c4.79-1.14,9.58-2.28,14.38-3.43c-5.75,5.78-11.07,11.99-15.91,18.56c5.11,2.38,9.72,5.82,13.43,10.06
														c-16.11,2.53-32.54,2.96-48.76,1.29c3.98-8.59,1.82-19.62-5.11-26.07c4.47,0.23,8.94,0.48,13.41,0.7
														c-6.27-1.95-11.98-6.42-16.57-11C969.47,1079.67,981.18,1081.21,981.36,1081.57z"/>
												</g>
											</g>
										</g>
									</g>
								</g>
							</g>
						</g>
					</g>
				</g>
			</g>
		</g>
	</g>
	<g>
		<g>
			<g>
				<g>
					<g>
						<g>
							<g>
								<g>
									<g>
										<g>
											<g>
												<g>
													<path d="M1002.23,1415.3c7.12-12.04,1.22-30.57,0.39-43.14c1.59,3.15,3.19,6.3,4.78,9.45
														c2.36-5.37,3.22-11.27,2.48-17.01c4.16,2,7.98,4.58,11.29,7.64c-2.29-11.62-13.37-21.82-11.12-33.44
														c1.7,2.21,5,2.26,6.7,4.47c-0.27-7.15-5.53-10.76-5.8-17.91c2.65,0.54,4.97,2.29,6.03,4.57
														c0.19-9.01-1.66-18.06-5.4-26.4c2.73,1.4,5.46,2.81,8.19,4.21c-1.86-4.55-4.31-8.89-7.29-12.91
														c4.37,1.27,8.62,2.89,12.67,4.85c-6.17-12.25-11.87-16.28-11.32-25.84c0.87,0.82,1.74,1.64,2.6,2.45
														c0.34-3.97,0.01-7.98-0.97-11.86c2.75,1.45,5.2,3.38,7.15,5.67c-0.69-7.14-3.5-14.1-8.03-19.96
														c4.67-1.23,9.71-1.3,14.42-0.2c-4.25-3.87-9.55-6.77-15.29-8.38c3.47-1.07,7.19-1.45,10.83-1.09
														c-3.33-3.39-6.66-6.78-10-10.17c5.14,0.37,10.23,1.37,15.08,2.97c-3.99-4.11-8.59-7.74-13.63-10.75
														c0.4-4.26,2.51-10.14,2.92-14.4c0.49-5.16-0.29-9.42,4.45-12.28c-3.37,0.4-6.73,0.79-10.09,1.19
														c0.79-7.67,11.48-7.75,14.22-7.34c1.56,0.42-8.91-9.91-7.35-9.49c1.86-0.79-5.05-10.05-10.42-17.87
														c4.86-0.87,17.48-3.89,22.12-5.49c-5.3-0.88-10.6-1.76-15.9-2.64c3.88-2.14,7.52-4.63,10.85-7.43
														c-5.47,1.64-11.15,2.72-16.88,3.21c1.86-3.68,2.99-7.66,3.34-11.69c-1.52,2.52-3.76,4.69-6.42,6.23
														c1.88-3.97,7.62-23.28,1.34-26.04c-4.84-2.13-10.08-14.01-11.51-8.63c-1.43-5.38-4.99,6.5-9.83,8.63
														c-6.28,2.77-0.54,22.07,1.34,26.04c-2.67-1.54-4.9-3.7-6.42-6.23c0.34,4.04,1.48,8.02,3.34,11.69
														c-5.74-0.5-11.41-1.58-16.88-3.21c3.34,2.8,6.98,5.29,10.85,7.43c-5.3,0.88-10.6,1.76-15.9,2.64
														c4.64,1.6,17.26,4.62,22.12,5.49c-0.58,5.59-9.84,12.28-10.42,17.87c1.56-0.42-8.91,9.91-7.35,9.49
														c2.74-0.41,13.42-0.33,14.22,7.34c-3.36-0.4-6.73-0.79-10.09-1.19c4.74,2.86,3.89,3.77,4.37,8.93
														c0.4,4.26,2.59,13.49,3,17.75c-5.04,3.01-10.17,3.82-14.17,7.94c4.85-1.6,10.48,0.21,15.62-0.16
														c-3.33,3.39-6.66,6.78-10,10.17c3.64-0.35,7.36,0.02,10.82,1.09c-5.74,1.61-11.04,4.51-15.29,8.38
														c4.71-1.1,9.75-1.03,14.42,0.2c-4.54,5.86-7.34,12.82-8.03,19.96c1.96-2.28,4.4-4.22,7.15-5.67
														c-0.98,3.88-1.31,7.89-0.97,11.86c0.87-0.82,1.74-1.64,2.6-2.45c0.55,9.56-3.7,19.26-11.32,25.84
														c4.06-1.96,8.3-3.58,12.67-4.85c-2.98,4.02-5.43,8.36-7.29,12.91c2.73-1.4,5.46-2.81,8.19-4.21
														c-3.74,8.34-5.59,17.39-5.4,26.4c1.06-2.28,3.38-4.03,6.03-4.57c-0.27,7.15-0.55,14.29-0.82,21.44
														c1.7-2.21,3.41-4.42,5.11-6.64c2.25,11.62-12.21,20.46-14.51,32.08c3.31-3.05,7.13-5.64,11.29-7.64
														c-0.74,5.74,0.12,11.65,2.48,17.01c1.59-3.15,3.19-6.3,4.78-9.45c-0.84,12.57-8.41,28.86-1.29,40.91l6.14,16.75
														L1002.23,1415.3z"/>
												</g>
											</g>
										</g>
									</g>
								</g>
							</g>
						</g>
					</g>
				</g>
			</g>
		</g>
	</g>
</g>
</svg>
